solid OpenSCAD_Model
  facet normal -1 0 0
    outer loop
      vertex 0 0 0
      vertex 0 0 1
      vertex 0 131.333 0
    endloop
  endfacet
  facet normal -1 0 0
    outer loop
      vertex 0 131.333 0
      vertex 0 0 1
      vertex 0 10 1
    endloop
  endfacet
  facet normal -1 0 0
    outer loop
      vertex 0 131.333 0
      vertex 0 10 1
      vertex 0 10 2
    endloop
  endfacet
  facet normal -1 0 0
    outer loop
      vertex 0 131.333 0
      vertex 0 10 2
      vertex 0 131.333 2
    endloop
  endfacet
  facet normal 0 -1 0
    outer loop
      vertex 0 0 1
      vertex 0 0 0
      vertex 20 0 0
    endloop
  endfacet
  facet normal 0 -1 0
    outer loop
      vertex 20 0 1
      vertex 0 0 1
      vertex 20 0 0
    endloop
  endfacet
  facet normal 0 0 -1
    outer loop
      vertex 0 0 0
      vertex 0 131.333 0
      vertex 20 0 0
    endloop
  endfacet
  facet normal 0 0 -1
    outer loop
      vertex 20 0 0
      vertex 0 131.333 0
      vertex 20 131.333 0
    endloop
  endfacet
  facet normal 0 1 0
    outer loop
      vertex 0 131.333 0
      vertex 0 131.333 2
      vertex 20 131.333 0
    endloop
  endfacet
  facet normal 0 1 0
    outer loop
      vertex 20 131.333 0
      vertex 0 131.333 2
      vertex 20 131.333 2
    endloop
  endfacet
  facet normal 0 0 1
    outer loop
      vertex 0 131.333 2
      vertex 0 10 2
      vertex 20 10 2
    endloop
  endfacet
  facet normal 0 0 1
    outer loop
      vertex 20 131.333 2
      vertex 0 131.333 2
      vertex 20 10 2
    endloop
  endfacet
  facet normal 0 -1 0
    outer loop
      vertex 20 10 1
      vertex 20 10 2
      vertex 0 10 2
    endloop
  endfacet
  facet normal 0 -1 0
    outer loop
      vertex 0 10 1
      vertex 20 10 1
      vertex 0 10 2
    endloop
  endfacet
  facet normal 0 0 1
    outer loop
      vertex 20 0 1
      vertex 20 10 1
      vertex 0 10 1
    endloop
  endfacet
  facet normal 0 0 1
    outer loop
      vertex 0 0 1
      vertex 20 0 1
      vertex 0 10 1
    endloop
  endfacet
  facet normal 1 0 0
    outer loop
      vertex 20 0 1
      vertex 20 0 0
      vertex 20 131.333 0
    endloop
  endfacet
  facet normal 1 0 0
    outer loop
      vertex 20 10 1
      vertex 20 0 1
      vertex 20 131.333 0
    endloop
  endfacet
  facet normal 1 0 0
    outer loop
      vertex 20 131.333 2
      vertex 20 10 1
      vertex 20 131.333 0
    endloop
  endfacet
  facet normal 1 0 0
    outer loop
      vertex 20 10 2
      vertex 20 10 1
      vertex 20 131.333 2
    endloop
  endfacet
  facet normal -1 0 0
    outer loop
      vertex 40 0 0
      vertex 40 0 1
      vertex 40 131.333 0
    endloop
  endfacet
  facet normal -1 0 0
    outer loop
      vertex 40 131.333 0
      vertex 40 0 1
      vertex 40 10 1
    endloop
  endfacet
  facet normal -1 0 0
    outer loop
      vertex 40 131.333 0
      vertex 40 10 1
      vertex 40 10 2
    endloop
  endfacet
  facet normal -1 0 0
    outer loop
      vertex 40 121.333 1
      vertex 40 10 2
      vertex 40 121.333 2
    endloop
  endfacet
  facet normal -1 0 0
    outer loop
      vertex 40 131.333 0
      vertex 40 10 2
      vertex 40 121.333 1
    endloop
  endfacet
  facet normal -1 0 0
    outer loop
      vertex 40 131.333 1
      vertex 40 131.333 0
      vertex 40 121.333 1
    endloop
  endfacet
  facet normal 0 -1 0
    outer loop
      vertex 40 0 1
      vertex 40 0 0
      vertex 60 0 0
    endloop
  endfacet
  facet normal 0 -1 0
    outer loop
      vertex 60 0 1
      vertex 40 0 1
      vertex 60 0 0
    endloop
  endfacet
  facet normal 0 0 -1
    outer loop
      vertex 40 0 0
      vertex 40 131.333 0
      vertex 60 0 0
    endloop
  endfacet
  facet normal 0 0 -1
    outer loop
      vertex 60 0 0
      vertex 40 131.333 0
      vertex 60 131.333 0
    endloop
  endfacet
  facet normal 0 1 0
    outer loop
      vertex 40 131.333 0
      vertex 40 131.333 1
      vertex 60 131.333 0
    endloop
  endfacet
  facet normal 0 1 0
    outer loop
      vertex 60 131.333 0
      vertex 40 131.333 1
      vertex 60 131.333 1
    endloop
  endfacet
  facet normal 0 0 1
    outer loop
      vertex 60 121.333 1
      vertex 60 131.333 1
      vertex 40 131.333 1
    endloop
  endfacet
  facet normal 0 0 1
    outer loop
      vertex 40 121.333 1
      vertex 60 121.333 1
      vertex 40 131.333 1
    endloop
  endfacet
  facet normal 0 1 0
    outer loop
      vertex 60 121.333 2
      vertex 60 121.333 1
      vertex 40 121.333 2
    endloop
  endfacet
  facet normal 0 1 0
    outer loop
      vertex 40 121.333 2
      vertex 60 121.333 1
      vertex 40 121.333 1
    endloop
  endfacet
  facet normal 0 0 1
    outer loop
      vertex 40 121.333 2
      vertex 40 10 2
      vertex 60 10 2
    endloop
  endfacet
  facet normal 0 0 1
    outer loop
      vertex 60 121.333 2
      vertex 40 121.333 2
      vertex 60 10 2
    endloop
  endfacet
  facet normal 0 -1 0
    outer loop
      vertex 60 10 1
      vertex 60 10 2
      vertex 40 10 2
    endloop
  endfacet
  facet normal 0 -1 0
    outer loop
      vertex 40 10 1
      vertex 60 10 1
      vertex 40 10 2
    endloop
  endfacet
  facet normal 0 0 1
    outer loop
      vertex 60 0 1
      vertex 60 10 1
      vertex 40 10 1
    endloop
  endfacet
  facet normal 0 0 1
    outer loop
      vertex 40 0 1
      vertex 60 0 1
      vertex 40 10 1
    endloop
  endfacet
  facet normal 1 0 0
    outer loop
      vertex 60 0 1
      vertex 60 0 0
      vertex 60 131.333 0
    endloop
  endfacet
  facet normal 1 0 0
    outer loop
      vertex 60 10 1
      vertex 60 0 1
      vertex 60 131.333 0
    endloop
  endfacet
  facet normal 1 0 0
    outer loop
      vertex 60 121.333 1
      vertex 60 10 1
      vertex 60 131.333 0
    endloop
  endfacet
  facet normal 1 0 0
    outer loop
      vertex 60 131.333 1
      vertex 60 121.333 1
      vertex 60 131.333 0
    endloop
  endfacet
  facet normal 1 0 0
    outer loop
      vertex 60 121.333 2
      vertex 60 10 1
      vertex 60 121.333 1
    endloop
  endfacet
  facet normal 1 0 0
    outer loop
      vertex 60 10 2
      vertex 60 10 1
      vertex 60 121.333 2
    endloop
  endfacet
  facet normal -1 0 0
    outer loop
      vertex 80 0 0
      vertex 80 0 1
      vertex 80 131.333 0
    endloop
  endfacet
  facet normal -1 0 0
    outer loop
      vertex 80 131.333 0
      vertex 80 0 1
      vertex 80 10 1
    endloop
  endfacet
  facet normal -1 0 0
    outer loop
      vertex 80 131.333 0
      vertex 80 10 1
      vertex 80 10 2
    endloop
  endfacet
  facet normal -1 0 0
    outer loop
      vertex 80 131.333 0
      vertex 80 10 2
      vertex 80 131.333 2
    endloop
  endfacet
  facet normal 0 -1 0
    outer loop
      vertex 80 0 1
      vertex 80 0 0
      vertex 100 0 0
    endloop
  endfacet
  facet normal 0 -1 0
    outer loop
      vertex 100 0 1
      vertex 80 0 1
      vertex 100 0 0
    endloop
  endfacet
  facet normal 0 0 -1
    outer loop
      vertex 80 0 0
      vertex 80 131.333 0
      vertex 100 0 0
    endloop
  endfacet
  facet normal 0 0 -1
    outer loop
      vertex 100 0 0
      vertex 80 131.333 0
      vertex 100 131.333 0
    endloop
  endfacet
  facet normal 0 1 0
    outer loop
      vertex 80 131.333 0
      vertex 80 131.333 2
      vertex 100 131.333 0
    endloop
  endfacet
  facet normal 0 1 0
    outer loop
      vertex 100 131.333 0
      vertex 80 131.333 2
      vertex 100 131.333 2
    endloop
  endfacet
  facet normal 0 0 1
    outer loop
      vertex 80 131.333 2
      vertex 80 10 2
      vertex 100 10 2
    endloop
  endfacet
  facet normal 0 0 1
    outer loop
      vertex 100 131.333 2
      vertex 80 131.333 2
      vertex 100 10 2
    endloop
  endfacet
  facet normal 0 -1 0
    outer loop
      vertex 100 10 1
      vertex 100 10 2
      vertex 80 10 2
    endloop
  endfacet
  facet normal 0 -1 0
    outer loop
      vertex 80 10 1
      vertex 100 10 1
      vertex 80 10 2
    endloop
  endfacet
  facet normal 0 0 1
    outer loop
      vertex 100 0 1
      vertex 100 10 1
      vertex 80 10 1
    endloop
  endfacet
  facet normal 0 0 1
    outer loop
      vertex 80 0 1
      vertex 100 0 1
      vertex 80 10 1
    endloop
  endfacet
  facet normal 1 0 0
    outer loop
      vertex 100 0 1
      vertex 100 0 0
      vertex 100 131.333 0
    endloop
  endfacet
  facet normal 1 0 0
    outer loop
      vertex 100 10 1
      vertex 100 0 1
      vertex 100 131.333 0
    endloop
  endfacet
  facet normal 1 0 0
    outer loop
      vertex 100 131.333 2
      vertex 100 10 1
      vertex 100 131.333 0
    endloop
  endfacet
  facet normal 1 0 0
    outer loop
      vertex 100 10 2
      vertex 100 10 1
      vertex 100 131.333 2
    endloop
  endfacet
endsolid OpenSCAD_Model
