<?xml version="1.0" encoding="UTF-8" standalone="no"?>
<!-- Created with Inkscape (http://www.inkscape.org/) -->

<svg
   xmlns:dc="http://purl.org/dc/elements/1.1/"
   xmlns:cc="http://creativecommons.org/ns#"
   xmlns:rdf="http://www.w3.org/1999/02/22-rdf-syntax-ns#"
   xmlns:svg="http://www.w3.org/2000/svg"
   xmlns="http://www.w3.org/2000/svg"
   xmlns:sodipodi="http://sodipodi.sourceforge.net/DTD/sodipodi-0.dtd"
   xmlns:inkscape="http://www.inkscape.org/namespaces/inkscape"
   width="744.09448819"
   height="1052.3622047"
   id="svg2"
   version="1.1"
   inkscape:version="0.48.4 r9939"
   sodipodi:docname="New document 1">
  <defs
     id="defs4" />
  <sodipodi:namedview
     id="base"
     pagecolor="#ffffff"
     bordercolor="#666666"
     borderopacity="1.0"
     inkscape:pageopacity="0.0"
     inkscape:pageshadow="2"
     inkscape:zoom="1.4"
     inkscape:cx="342.99333"
     inkscape:cy="565.75015"
     inkscape:document-units="px"
     inkscape:current-layer="layer1"
     showgrid="false"
     inkscape:window-width="1920"
     inkscape:window-height="1018"
     inkscape:window-x="1912"
     inkscape:window-y="-8"
     inkscape:window-maximized="1" />
  <metadata
     id="metadata7">
    <rdf:RDF>
      <cc:Work
         rdf:about="">
        <dc:format>image/svg+xml</dc:format>
        <dc:type
           rdf:resource="http://purl.org/dc/dcmitype/StillImage" />
        <dc:title></dc:title>
      </cc:Work>
    </rdf:RDF>
  </metadata>
  <g
     inkscape:label="Layer 1"
     inkscape:groupmode="layer"
     id="layer1">
    <path
       style="fill:#000000"
       d="m 489.47908,552.33697 c -1.8513,-4.84756 -6.59591,-9.96073 -7.3312,-7.90067 -0.62374,1.74753 -4.22152,1.56464 -4.91786,-0.25 -0.32811,-0.85503 -1.81954,-1.5 -3.46862,-1.5 -3.19195,0 -3.86327,-1.94987 -1.38068,-4.01023 1.14492,-0.9502 1.23849,-1.58509 0.38516,-2.61329 -0.61995,-0.74699 -0.92654,-2.72522 -0.68131,-4.39607 0.39765,-2.70933 -0.3752,-3.81898 -7.14533,-10.25916 -17.95576,-17.08069 -36.87627,-33.59612 -40.73664,-35.55842 -2.29118,-1.16465 -5.05362,-3.36524 -6.13875,-4.89019 -2.62962,-3.69543 -14.65331,-27.25178 -20.38039,-39.92846 l -4.5882,-10.15583 -13.19813,3.95155 c -25.6258,7.67242 -26.33356,8.13514 -27.39607,17.91089 -1.00952,9.28807 -4.12694,16.36335 -14.0993,31.99961 -11.92472,18.69748 -12.55044,20.78024 -10.05538,33.46994 l 1.88075,9.56537 -2.20831,2.20714 c -2.00395,2.00289 -3.38555,2.23785 -14.92937,2.53885 -28.47623,0.7425 -28.42367,0.74512 -32.97106,-1.64166 -3.40112,-1.78514 -3.96778,-4.17694 -4.40625,-6.29448 -0.54688,-2.64108 0.84605,-1.26058 1.69922,0.93252 2.05397,2.93245 9.55745,5.50074 15.24564,5.33996 20.846,-0.58923 30.46623,-1.23406 32.19228,-2.15781 2.3951,-1.28182 2.50495,-3.61173 0.51911,-11.01023 -3.02848,-11.28299 -2.02822,-14.50831 10.75434,-34.67697 10.863,-17.13993 12.16003,-20.06624 13.76791,-31.06264 1.42631,-9.75456 2.47464,-10.93211 12.97775,-14.57734 12.12823,-4.20925 27.54872,-8.68305 29.9291,-8.68305 1.81786,0 3.00178,1.72068 6.70856,9.75 7.38033,15.98665 16.29817,33.75725 19.37576,38.6101 1.8256,2.87869 4.46139,5.34883 7.18497,6.73344 4.15163,2.11059 23.93969,19.42696 42.05161,36.79903 7.99389,7.66734 10.39415,11.10743 7.75,11.10743 -1.62395,0 -1.14135,2.82152 0.65449,3.82652 0.96742,0.54139 1.40385,1.57908 1.05093,2.49876 -0.4192,1.09242 -0.16093,1.40301 0.84551,1.0168 0.79699,-0.30583 1.44907,-0.0579 1.44907,0.55093 0,0.60885 1.04081,1.10699 2.31291,1.10699 2.99139,0 6.85197,4.14952 10.00144,10.75 0.72516,1.51976 1.22551,2.60441 1.51814,3.37682 0.65791,0.15723 1.75123,0.65614 2.32571,1.17457 0.87267,0.78753 1.09924,1.84332 -0.6534,1.59173 -0.79555,-0.13758 -1.76599,-0.20064 -2.66012,-0.75919 -1.32163,-0.8256 -2.13656,-1.60969 -3.23399,-4.48326 z m 8.94245,1.59933 c 1.90606,-3.65391 1.83535,-13.39876 -0.13085,-18.03212 -0.86774,-2.04483 -1.91781,-8.35188 -2.33349,-14.01565 -0.99356,-13.53764 -1.65213,-14.25318 -9.91678,-10.77463 -9.43775,3.97229 -10.00887,3.78203 -16.77728,-5.5891 -10.13102,-14.0268 -15.17201,-19.59792 -23.16058,-25.59629 -11.68576,-8.77445 -14.39639,-13.38871 -19.23432,-32.74221 -2.1998,-8.8 -4.28963,-18.388 -4.64408,-21.30667 -0.62339,-5.13329 -0.53354,-5.39933 2.7499,-8.14257 3.37669,-2.82114 3.39395,-2.87935 3.31959,-11.19333 -0.062,-6.93419 -0.88674,-11.08217 -4.84286,-24.35743 -3.80928,-12.78252 -4.65934,-16.94692 -4.22723,-20.70888 0.75275,-6.55348 11.84384,-39.63597 13.50514,-40.28311 1.36352,-0.53115 21.89673,5.23904 28.5799,8.03145 l 3.5598,1.48738 0,8.85559 c 0,9.57037 -2.41108,25.70303 -4.15554,27.80499 -0.59259,0.71402 -2.71625,1.73951 -4.71925,2.27887 -4.17203,1.1234 -7.77072,6.42452 -6.68454,9.84677 0.55655,1.75353 1.0695,1.90101 3.84419,1.10524 1.76106,-0.50506 4.66741,-0.9183 6.45854,-0.9183 1.96309,0 3.2566,-0.50359 3.2566,-1.26787 0,-0.69732 1.04961,-2.83482 2.33248,-4.75 2.49282,-3.72151 11.66752,-37.32755 11.66752,-42.737 0,-1.70625 -0.7055,-3.80777 -1.56778,-4.67006 -3.08084,-3.08084 -47.58489,-23.68474 -51.39244,-23.793 -1.49674,-0.0426 -4.11051,0.94968 -5.80838,2.20497 -3.91201,2.89227 -5.80995,2.15168 -7.30912,-2.85209 -1.0455,-3.48959 -0.86602,-5.11162 1.48107,-13.38479 1.57007,-5.53427 2.55245,-11.23479 2.3837,-13.83208 l -0.28705,-4.41808 4.94242,-0.31265 4.94242,-0.31265 7.05758,7.405 c 3.88167,4.07275 8.63258,8.45585 10.55758,9.74022 l 3.5,2.33522 -2.25,-2.49202 c -2.73732,-3.03176 -3.01226,-5.40704 -0.5,-4.31962 0.9625,0.41662 4.26572,1.44891 7.34048,2.29399 l 5.59049,1.53651 9.05297,-4.3022 c 7.24471,-3.44286 9.87992,-4.22333 13.19309,-3.90737 4.1338,0.39422 4.13664,0.39212 1.85655,-1.3787 -3.37175,-2.61864 -9.66147,-4.07171 -14.77631,-3.41366 -15.04094,1.9351 -15.00727,1.93423 -15.00727,0.386 0,-0.93183 -1.30457,-1.70809 -3.45782,-2.05751 -1.9018,-0.30862 -6.57356,-2.41215 -10.38167,-4.67451 -3.80812,-2.26236 -8.48245,-4.36631 -10.38739,-4.67544 -3.7666,-0.61124 -9.46551,1.6842 -10.43156,4.20168 -0.79789,2.07927 -3.65099,1.78314 -5.09482,-0.52881 -3.38086,-5.41361 -15.26987,-7.68342 -22.24674,-4.24726 -6.0861,2.99746 -12.93559,7.68061 -12.96839,8.86679 -0.0174,0.62866 -0.70661,1.40203 -1.53161,1.71862 -0.93468,0.35867 -1.47351,1.8123 -1.42972,3.85699 0.0682,3.18641 1.71843,8.53905 1.85943,6.03138 0.13532,-2.40654 3.0338,-1.22125 4.6483,1.90085 1.11233,2.15101 1.43405,4.37227 1.01386,7 -0.48605,3.03959 -0.29754,3.84915 0.89631,3.84915 0.8315,0 1.51237,0.5625 1.51304,1.25 6.7e-4,0.6875 1.01317,2.44955 2.25,3.91567 1.23683,1.46612 2.69878,3.39901 3.24878,4.29532 0.84401,1.37543 1.50892,1.45064 4.26251,0.48214 4.50969,-1.58617 5.72817,-0.83389 7.20753,4.44985 1.11405,3.97902 1.06794,4.90011 -0.35397,7.07022 -0.8992,1.37235 -3.09317,3.2473 -4.87549,4.16656 -1.78232,0.91926 -5.26558,3.22322 -7.74058,5.11991 -7.1364,5.46891 -22.87437,14.42117 -24.72553,14.06467 -2.40384,-0.46294 -3.4401,-6.27751 -3.62036,-20.31434 -0.15402,-11.99329 -0.15232,-12.00252 3.03917,-16.5 2.95238,-4.16052 3.12541,-4.83948 2.29355,-9 -0.49485,-2.475 -0.91933,-4.8926 -0.94328,-5.37244 -0.0239,-0.47985 -0.60605,-0.40791 -1.29355,0.15985 -0.6875,0.56776 -2.825,1.43782 -4.75,1.93347 l -3.5,0.90117 -0.85245,11.93897 c -1.13899,15.95222 -1.34276,43.23804 -0.34953,46.80438 0.71907,2.58196 1.11004,2.80299 3.9525,2.2345 1.73496,-0.347 8.1408,-2.64893 14.23519,-5.1154 6.09439,-2.46648 11.79984,-4.4845 12.67878,-4.4845 2.64665,0 3.83551,7.68898 3.83551,24.80633 0,8.75638 0.45405,18.31489 1.009,21.24114 0.55495,2.92624 0.77183,6.06771 0.48195,6.98104 -0.28988,0.91332 -6.48143,5.16079 -13.759,9.43882 -31.20652,18.34432 -36.95244,21.94521 -38.18913,23.93257 -0.71877,1.15506 -1.59462,4.73652 -1.94635,7.95881 -0.35172,3.22228 -2.47552,11.54728 -4.71955,18.5 -4.56606,14.14708 -16.24259,44.24355 -18.50448,47.69563 -1.94135,2.96287 -7.86284,2.98404 -11.36529,0.0406 -2.49195,-2.09421 -2.49222,-2.09421 -0.75,-0.0162 0.95857,1.14331 1.74285,2.85126 1.74285,3.79546 0,4.05604 -10.66797,10.6258 -17.25416,10.6258 -1.6986,0 -3.97295,0.80204 -5.01905,1.74725 -0.59573,0.53828 -0.24336,2.44822 -0.40392,3.35534 1.20499,9.20792 -0.81044,5.33949 -1.66613,0.51204 -0.0315,-0.28316 0.37603,-3.7494 0.49131,-4.54295 0.29872,-2.0564 1.18376,-2.59276 5.85195,-3.54641 6.0844,-1.24296 13.99961,-4.69207 12.16842,-5.30246 -1.64861,-0.54954 -1.45417,-3.17593 0.28452,-3.84312 1.12741,-0.43263 1.20408,-0.95603 0.34218,-2.33615 -2.66019,-4.25963 2.23898,-6.87332 5.70488,-3.04354 0.99549,1.1 3.02878,2 4.51842,2 3.19642,0 4.78388,-3.13529 14.14938,-27.94557 7.21572,-19.11525 10.40382,-29.50087 11.83515,-38.55443 0.60867,-3.85 1.73471,-7.96264 2.50231,-9.1392 1.26914,-1.94529 8.50893,-6.45717 40.82498,-25.44235 l 10.83024,-6.3626 -0.53669,-4.02792 c -0.29518,-2.21536 -0.80272,-11.90293 -1.12787,-21.52793 -0.32514,-9.625 -0.82629,-19.14016 -1.11366,-21.14479 l -0.52251,-3.64479 -8.88623,3.85417 c -10.87967,4.71877 -19.13825,7.19316 -21.27341,6.37383 -3.85863,-1.4807 -4.70922,-12.596 -3.32409,-43.43842 0.48166,-10.725 1.25469,-20.23099 1.71784,-21.12442 0.80203,-1.54714 9.15596,-4.87558 12.23705,-4.87558 1.86891,0 2.59262,1.97502 3.33845,9.11069 0.54773,5.24044 0.3592,6.06666 -2.03311,8.90976 -1.45026,1.72353 -2.89929,4.33651 -3.22007,5.80662 -0.32077,1.47011 -0.74262,3.1992 -0.93743,3.84243 -0.51771,1.70939 1.63158,21.69953 2.4268,22.57114 0.88133,0.96599 15.02916,-7.10681 22.19997,-12.66738 3.08303,-2.39072 6.51118,-4.63422 7.61811,-4.98554 3.75355,-1.19133 5.57411,-4.1871 4.85948,-7.99638 l -0.65447,-3.48866 -4.75682,0.56338 c -4.58829,0.54341 -4.84387,0.43555 -7.21431,-3.04451 -1.35163,-1.98434 -2.79501,-3.61096 -3.20751,-3.61472 -0.4125,-0.004 -0.75,-0.666 -0.75,-1.47165 0,-0.80565 -0.91251,-1.95317 -2.0278,-2.55006 -1.77242,-0.94857 -1.94509,-1.70874 -1.37107,-6.03597 l 0.65674,-4.95072 -2.97241,0.59448 c -2.92821,0.58564 -2.99075,0.50759 -4.20618,-5.24921 -0.9761,-4.62323 -0.97719,-6.47026 -0.005,-8.8437 0.6757,-1.65 1.12055,-4.0713 0.98856,-5.38067 -0.21127,-2.09574 0.0695,-2.30298 2.34607,-1.73161 1.98064,0.49711 3.78348,-0.17462 7.7009,-2.86933 4.99232,-3.43411 5.34836,-3.51839 14.86309,-3.51839 8.72599,0 10.13115,0.25986 13.39978,2.47801 l 3.65155,2.478 3.238,-1.97427 c 5.48811,-3.3462 12.0465,-2.69656 20.06161,1.9872 9.03172,5.27783 13.01047,6.33614 17.21553,4.57915 1.79747,-0.75103 3.56682,-2.30659 3.93189,-3.4568 0.70042,-2.20685 2.97249,-2.80071 4.04931,-1.05838 0.35111,0.5681 -0.25364,2.54476 -1.34388,4.39258 l -1.98225,3.35967 3.6181,-0.999 c 7.52846,-2.07871 19.93467,1.89008 22.71497,7.26659 2.84146,5.49478 0.79182,8.1673 -3.02728,3.94725 -2.58683,-2.85842 -5.0349,-2.51787 -14.37729,2 -6.29503,3.04421 -9.50819,4.00957 -13.4471,4.04004 -5.15722,0.0399 -5.16584,0.0453 -2.42561,1.53194 3.61359,1.9604 3.49233,3.42802 -0.28324,3.42802 -5.33938,0 -13.05673,-4.83511 -21.09538,-13.21677 -5.98856,-6.24409 -8.13845,-7.88202 -10,-7.61869 -2.16566,0.30636 -2.42531,0.94273 -2.99306,7.33546 -0.34192,3.85 -1.35442,8.96908 -2.25,11.37573 -1.78895,4.80737 -2.08732,9.85096 -0.71133,12.02419 0.73135,1.1551 1.36435,1.02394 3.61954,-0.75 5.33296,-4.1949 9.08551,-2.9857 45.52433,14.66947 14.95845,7.2476 16.94306,8.94408 16.93654,14.47766 -0.005,4.25036 -9.79896,40.61688 -11.68681,43.39502 -1.04946,1.54436 -2.43901,4.04543 -3.08791,5.55793 -1.06322,2.47826 -1.67599,2.75 -6.20124,2.75 -3.70543,0 -5.02144,0.37765 -5.02144,1.44098 0,3.05606 -2.40995,2.83054 -5.17748,-0.4845 -3.41068,-4.08546 -3.50285,-5.86068 -0.57252,-11.02746 1.6495,-2.90841 3.25401,-4.27221 6.01188,-5.10997 2.06903,-0.62851 4.15434,-1.63241 4.63403,-2.2309 1.08965,-1.35951 4.10409,-21.88735 4.10409,-27.94819 l 0,-4.49626 -5.25,-1.94937 c -10.37478,-3.85225 -23.0216,-7.32129 -23.75384,-6.51571 -0.77543,0.85309 -10.10457,28.86483 -11.90308,35.74024 -0.9055,3.46161 -0.45519,5.86699 3.85939,20.61504 5.65674,19.33582 6.5393,24.20106 5.56667,30.68706 -0.53558,3.57148 -1.5532,5.51813 -4.17939,7.99494 l -3.47142,3.27398 4.95223,19.97722 c 5.77782,23.30756 7.35315,26.18397 19.24087,35.13202 7.70794,5.80187 13.24124,11.76935 21.23464,22.90088 2.56716,3.575 5.48963,7.54491 6.49438,8.82202 l 1.82681,2.32203 5.8158,-2.57203 c 7.52962,-3.32995 11.01985,-3.33661 13.1896,-0.0252 1.81101,2.76396 4.19237,15.66253 4.97603,35.83708 0.43639,11.23452 -0.54649,11.99553 -2.45827,11.99553 -0.51641,0 -2.10683,0.74989 -3.12131,0.47894 -0.34782,-0.0929 0.32321,-1.47953 -0.0223,-1.73457 -0.18248,-0.13471 1.63022,0.0613 1.93994,-0.49264 0.22981,-0.411 0.36651,-0.90222 0.61636,-1.38119 z"
       id="path2996"
       inkscape:connector-curvature="0"
       sodipodi:nodetypes="ssssssssssscsssscsssscsssssssssssssssssscscsscssssssssssssscsssssssssscsssscccsscssscssssssssssscscsssssssssssssssscsscssssssssssssssssssccssssssssssscssscssssssssssssscsscssscsscssssscsssssscssssscsssssssssssssssssscsssssscsssscssssssscc" />
    <text
       xml:space="preserve"
       style="font-size:40px;font-style:normal;font-weight:normal;line-height:86.00000143%;letter-spacing:0px;word-spacing:0px;fill:#000000;fill-opacity:1;stroke:none;font-family:Sans"
       x="389.7684"
       y="518.07648"
       id="text3790"
       sodipodi:linespacing="86.000001%"><tspan
         sodipodi:role="line"
         id="tspan3792"
         x="389.7684"
         y="518.07648"
         style="font-style:normal;font-variant:normal;font-weight:normal;font-stretch:normal;text-align:center;line-height:86.00000143%;text-anchor:middle;font-family:Impact;-inkscape-font-specification:Impact">Run</tspan><tspan
         sodipodi:role="line"
         x="389.7684"
         y="552.4765"
         id="tspan3794"
         style="font-style:normal;font-variant:normal;font-weight:normal;font-stretch:normal;text-align:center;line-height:86.00000143%;text-anchor:middle;font-family:Impact;-inkscape-font-specification:Impact">Leana</tspan><tspan
         sodipodi:role="line"
         x="389.7684"
         y="586.87646"
         id="tspan3796"
         style="font-style:normal;font-variant:normal;font-weight:normal;font-stretch:normal;text-align:center;line-height:86.00000143%;text-anchor:middle;font-family:Impact;-inkscape-font-specification:Impact">Run</tspan></text>
  </g>
</svg>
