solid OpenSCAD_Model
  facet normal -1 0 0
    outer loop
      vertex -10 -8.61436 5.2
      vertex -10 10 0
      vertex -10 -10 4.4
    endloop
  endfacet
  facet normal -1 0 0
    outer loop
      vertex -10 -10 7.6
      vertex -10 -38 12
      vertex -10 10 12
    endloop
  endfacet
  facet normal -1 0 0
    outer loop
      vertex -10 -38 0
      vertex -10 -38 12
      vertex -10 -31.3856 6.8
    endloop
  endfacet
  facet normal -1 0 0
    outer loop
      vertex -10 -8.61436 6.8
      vertex -10 10 0
      vertex -10 -8.61436 5.2
    endloop
  endfacet
  facet normal -1 0 0
    outer loop
      vertex -10 -38 0
      vertex -10 -31.3856 6.8
      vertex -10 -31.3856 5.2
    endloop
  endfacet
  facet normal -1 0 0
    outer loop
      vertex -10 -38 0
      vertex -10 -31.3856 5.2
      vertex -10 -30 4.4
    endloop
  endfacet
  facet normal -1 0 0
    outer loop
      vertex -10 -38 0
      vertex -10 -30 4.4
      vertex -10 10 0
    endloop
  endfacet
  facet normal -1 0 0
    outer loop
      vertex -10 -28.6144 6.8
      vertex -10 10 0
      vertex -10 -28.6144 5.2
    endloop
  endfacet
  facet normal -1 0 0
    outer loop
      vertex -10 -28.6144 5.2
      vertex -10 10 0
      vertex -10 -30 4.4
    endloop
  endfacet
  facet normal -1 0 0
    outer loop
      vertex -10 -11.3856 5.2
      vertex -10 -38 12
      vertex -10 -11.3856 6.8
    endloop
  endfacet
  facet normal -1 0 0
    outer loop
      vertex -10 -28.6144 6.8
      vertex -10 -30 7.6
      vertex -10 10 0
    endloop
  endfacet
  facet normal -1 0 0
    outer loop
      vertex -10 -30 7.6
      vertex -10 -38 12
      vertex -10 -11.3856 5.2
    endloop
  endfacet
  facet normal -1 0 0
    outer loop
      vertex -10 -30 7.6
      vertex -10 -11.3856 5.2
      vertex -10 -10 4.4
    endloop
  endfacet
  facet normal -1 0 0
    outer loop
      vertex -10 -30 7.6
      vertex -10 -10 4.4
      vertex -10 10 0
    endloop
  endfacet
  facet normal -1 0 0
    outer loop
      vertex -10 -10 7.6
      vertex -10 10 12
      vertex -10 -8.61436 6.8
    endloop
  endfacet
  facet normal -1 0 0
    outer loop
      vertex -10 10 0
      vertex -10 -8.61436 6.8
      vertex -10 10 12
    endloop
  endfacet
  facet normal -1 0 0
    outer loop
      vertex -10 -11.3856 6.8
      vertex -10 -38 12
      vertex -10 -10 7.6
    endloop
  endfacet
  facet normal -1 0 0
    outer loop
      vertex -10 -31.3856 6.8
      vertex -10 -38 12
      vertex -10 -30 7.6
    endloop
  endfacet
  facet normal 0 -1 0
    outer loop
      vertex -10 -38 12
      vertex -10 -38 0
      vertex 0 -38 0
    endloop
  endfacet
  facet normal 0 -1 0
    outer loop
      vertex 0 -38 12
      vertex -10 -38 12
      vertex 0 -38 0
    endloop
  endfacet
  facet normal 0 0 -1
    outer loop
      vertex -10 -38 0
      vertex -10 10 0
      vertex 0 -38 0
    endloop
  endfacet
  facet normal 0 0 -1
    outer loop
      vertex 0 0 0
      vertex -10 10 0
      vertex 88 10 0
    endloop
  endfacet
  facet normal 0 0 -1
    outer loop
      vertex 78 -38 0
      vertex 88 10 0
      vertex 88 -38 0
    endloop
  endfacet
  facet normal 0 0 -1
    outer loop
      vertex 78 0 0
      vertex 88 10 0
      vertex 78 -38 0
    endloop
  endfacet
  facet normal 0 0 -1
    outer loop
      vertex 0 -38 0
      vertex -10 10 0
      vertex 0 0 0
    endloop
  endfacet
  facet normal 0 0 -1
    outer loop
      vertex 0 0 0
      vertex 88 10 0
      vertex 78 0 0
    endloop
  endfacet
  facet normal 0 1 0
    outer loop
      vertex 50.1 10 6.38564
      vertex -10 10 12
      vertex 88 10 12
    endloop
  endfacet
  facet normal 0 1 0
    outer loop
      vertex -10 10 0
      vertex -10 10 12
      vertex 4.4 10 6
    endloop
  endfacet
  facet normal 0 1 0
    outer loop
      vertex -10 10 0
      vertex 4.4 10 6
      vertex 5.2 10 4.61436
    endloop
  endfacet
  facet normal 0 1 0
    outer loop
      vertex -10 10 0
      vertex 5.2 10 4.61436
      vertex 88 10 0
    endloop
  endfacet
  facet normal 0 1 0
    outer loop
      vertex 5.2 10 4.61436
      vertex 6.8 10 4.61436
      vertex 88 10 0
    endloop
  endfacet
  facet normal 0 1 0
    outer loop
      vertex 7.6 10 6
      vertex 88 10 0
      vertex 6.8 10 4.61436
    endloop
  endfacet
  facet normal 0 1 0
    outer loop
      vertex 48.5 10 3.61436
      vertex -10 10 12
      vertex 47.7 10 5
    endloop
  endfacet
  facet normal 0 1 0
    outer loop
      vertex 5.2 10 7.38564
      vertex -10 10 12
      vertex 6.8 10 7.38564
    endloop
  endfacet
  facet normal 0 1 0
    outer loop
      vertex 7.6 10 6
      vertex 6.8 10 7.38564
      vertex 88 10 0
    endloop
  endfacet
  facet normal 0 1 0
    outer loop
      vertex 6.8 10 7.38564
      vertex -10 10 12
      vertex 48.5 10 3.61436
    endloop
  endfacet
  facet normal 0 1 0
    outer loop
      vertex 6.8 10 7.38564
      vertex 48.5 10 3.61436
      vertex 88 10 0
    endloop
  endfacet
  facet normal 0 1 0
    outer loop
      vertex 50.9 10 5
      vertex 88 10 0
      vertex 50.1 10 3.61436
    endloop
  endfacet
  facet normal 0 1 0
    outer loop
      vertex 48.5 10 3.61436
      vertex 50.1 10 3.61436
      vertex 88 10 0
    endloop
  endfacet
  facet normal 0 1 0
    outer loop
      vertex 50.1 10 6.38564
      vertex 88 10 12
      vertex 50.9 10 5
    endloop
  endfacet
  facet normal 0 1 0
    outer loop
      vertex 88 10 0
      vertex 50.9 10 5
      vertex 88 10 12
    endloop
  endfacet
  facet normal 0 1 0
    outer loop
      vertex 48.5 10 6.38564
      vertex -10 10 12
      vertex 50.1 10 6.38564
    endloop
  endfacet
  facet normal 0 1 0
    outer loop
      vertex 47.7 10 5
      vertex -10 10 12
      vertex 48.5 10 6.38564
    endloop
  endfacet
  facet normal 0 1 0
    outer loop
      vertex 4.4 10 6
      vertex -10 10 12
      vertex 5.2 10 7.38564
    endloop
  endfacet
  facet normal 0 0 1
    outer loop
      vertex -6.5 -33.25 12
      vertex -10 -38 12
      vertex 0 -38 12
    endloop
  endfacet
  facet normal 0 0 1
    outer loop
      vertex 78 0 12
      vertex -10 10 12
      vertex 0 0 12
    endloop
  endfacet
  facet normal 0 0 1
    outer loop
      vertex 88 10 12
      vertex -10 10 12
      vertex 78 0 12
    endloop
  endfacet
  facet normal 0 0 1
    outer loop
      vertex 81.5 -33.9167 12
      vertex 78 0 12
      vertex 78 -38 12
    endloop
  endfacet
  facet normal 0 0 1
    outer loop
      vertex 81.5 -9.91667 12
      vertex 78 0 12
      vertex 88 -38 12
    endloop
  endfacet
  facet normal 0 0 1
    outer loop
      vertex -3.5 -33.25 12
      vertex -6.5 -33.25 12
      vertex 0 -38 12
    endloop
  endfacet
  facet normal 0 0 1
    outer loop
      vertex -10 10 12
      vertex -10 -38 12
      vertex -6.5 -33.25 12
    endloop
  endfacet
  facet normal 0 0 1
    outer loop
      vertex -10 10 12
      vertex -6.5 -33.25 12
      vertex -6.5 -26.75 12
    endloop
  endfacet
  facet normal 0 0 1
    outer loop
      vertex 84.5 -27.4167 12
      vertex 84.5 -33.9167 12
      vertex 88 -38 12
    endloop
  endfacet
  facet normal 0 0 1
    outer loop
      vertex -6.5 -13.25 12
      vertex -6.5 -26.75 12
      vertex -3.5 -26.75 12
    endloop
  endfacet
  facet normal 0 0 1
    outer loop
      vertex -6.5 -13.25 12
      vertex -6.5 -6.75 12
      vertex -10 10 12
    endloop
  endfacet
  facet normal 0 0 1
    outer loop
      vertex -10 10 12
      vertex -6.5 -26.75 12
      vertex -6.5 -13.25 12
    endloop
  endfacet
  facet normal 0 0 1
    outer loop
      vertex 0 0 12
      vertex -10 10 12
      vertex -6.5 -6.75 12
    endloop
  endfacet
  facet normal 0 0 1
    outer loop
      vertex 0 0 12
      vertex -3.5 -6.75 12
      vertex 0 -38 12
    endloop
  endfacet
  facet normal 0 0 1
    outer loop
      vertex 0 0 12
      vertex -6.5 -6.75 12
      vertex -3.5 -6.75 12
    endloop
  endfacet
  facet normal 0 0 1
    outer loop
      vertex -3.5 -6.75 12
      vertex -3.5 -13.25 12
      vertex 0 -38 12
    endloop
  endfacet
  facet normal 0 0 1
    outer loop
      vertex 88 -38 12
      vertex 81.5 -33.9167 12
      vertex 78 -38 12
    endloop
  endfacet
  facet normal 0 0 1
    outer loop
      vertex 81.5 -27.4167 12
      vertex 78 0 12
      vertex 81.5 -33.9167 12
    endloop
  endfacet
  facet normal 0 0 1
    outer loop
      vertex 84.5 -27.4167 12
      vertex 78 0 12
      vertex 81.5 -27.4167 12
    endloop
  endfacet
  facet normal 0 0 1
    outer loop
      vertex 81.5 -3.41667 12
      vertex 84.5 -3.41667 12
      vertex 88 10 12
    endloop
  endfacet
  facet normal 0 0 1
    outer loop
      vertex 88 -38 12
      vertex 78 0 12
      vertex 84.5 -27.4167 12
    endloop
  endfacet
  facet normal 0 0 1
    outer loop
      vertex 88 -38 12
      vertex 84.5 -33.9167 12
      vertex 81.5 -33.9167 12
    endloop
  endfacet
  facet normal 0 0 1
    outer loop
      vertex 84.5 -9.91667 12
      vertex 81.5 -9.91667 12
      vertex 88 -38 12
    endloop
  endfacet
  facet normal 0 0 1
    outer loop
      vertex 81.5 -3.41667 12
      vertex 78 0 12
      vertex 81.5 -9.91667 12
    endloop
  endfacet
  facet normal 0 0 1
    outer loop
      vertex 88 10 12
      vertex 78 0 12
      vertex 81.5 -3.41667 12
    endloop
  endfacet
  facet normal 0 0 1
    outer loop
      vertex 88 10 12
      vertex 84.5 -3.41667 12
      vertex 88 -38 12
    endloop
  endfacet
  facet normal 0 0 1
    outer loop
      vertex 84.5 -3.41667 12
      vertex 84.5 -9.91667 12
      vertex 88 -38 12
    endloop
  endfacet
  facet normal 0 0 1
    outer loop
      vertex -3.5 -26.75 12
      vertex -3.5 -33.25 12
      vertex 0 -38 12
    endloop
  endfacet
  facet normal 0 0 1
    outer loop
      vertex -3.5 -13.25 12
      vertex -3.5 -26.75 12
      vertex 0 -38 12
    endloop
  endfacet
  facet normal 0 0 1
    outer loop
      vertex -3.5 -13.25 12
      vertex -6.5 -13.25 12
      vertex -3.5 -26.75 12
    endloop
  endfacet
  facet normal 1.92296e-016 0.5 -0.866025
    outer loop
      vertex -6.5 -30 7.6
      vertex -6.5 -31.3856 6.8
      vertex -10 -30 7.6
    endloop
  endfacet
  facet normal 1.92296e-016 0.5 -0.866025
    outer loop
      vertex -10 -30 7.6
      vertex -6.5 -31.3856 6.8
      vertex -10 -31.3856 6.8
    endloop
  endfacet
  facet normal 0 1 0
    outer loop
      vertex -6.5 -31.3856 6.8
      vertex -6.5 -31.3856 5.2
      vertex -10 -31.3856 6.8
    endloop
  endfacet
  facet normal 0 1 0
    outer loop
      vertex -10 -31.3856 6.8
      vertex -6.5 -31.3856 5.2
      vertex -10 -31.3856 5.2
    endloop
  endfacet
  facet normal 1.92296e-016 -0.5 -0.866025
    outer loop
      vertex -6.5 -28.6144 6.8
      vertex -6.5 -30 7.6
      vertex -10 -28.6144 6.8
    endloop
  endfacet
  facet normal 1.92296e-016 -0.5 -0.866025
    outer loop
      vertex -10 -28.6144 6.8
      vertex -6.5 -30 7.6
      vertex -10 -30 7.6
    endloop
  endfacet
  facet normal 0 -1 0
    outer loop
      vertex -6.5 -28.6144 5.2
      vertex -6.5 -28.6144 6.8
      vertex -10 -28.6144 6.8
    endloop
  endfacet
  facet normal 0 -1 0
    outer loop
      vertex -10 -28.6144 5.2
      vertex -6.5 -28.6144 5.2
      vertex -10 -28.6144 6.8
    endloop
  endfacet
  facet normal -1.92296e-016 -0.5 0.866025
    outer loop
      vertex -6.5 -30 4.4
      vertex -6.5 -28.6144 5.2
      vertex -10 -28.6144 5.2
    endloop
  endfacet
  facet normal -1.92296e-016 -0.5 0.866025
    outer loop
      vertex -10 -30 4.4
      vertex -6.5 -30 4.4
      vertex -10 -28.6144 5.2
    endloop
  endfacet
  facet normal -1.92296e-016 0.5 0.866025
    outer loop
      vertex -6.5 -31.3856 5.2
      vertex -6.5 -30 4.4
      vertex -10 -30 4.4
    endloop
  endfacet
  facet normal -1.92296e-016 0.5 0.866025
    outer loop
      vertex -10 -31.3856 5.2
      vertex -6.5 -31.3856 5.2
      vertex -10 -30 4.4
    endloop
  endfacet
  facet normal 1.92296e-016 0.5 -0.866025
    outer loop
      vertex -6.5 -10 7.6
      vertex -6.5 -11.3856 6.8
      vertex -10 -10 7.6
    endloop
  endfacet
  facet normal 1.92296e-016 0.5 -0.866025
    outer loop
      vertex -10 -10 7.6
      vertex -6.5 -11.3856 6.8
      vertex -10 -11.3856 6.8
    endloop
  endfacet
  facet normal 0 1 0
    outer loop
      vertex -6.5 -11.3856 6.8
      vertex -6.5 -11.3856 5.2
      vertex -10 -11.3856 6.8
    endloop
  endfacet
  facet normal 0 1 0
    outer loop
      vertex -10 -11.3856 6.8
      vertex -6.5 -11.3856 5.2
      vertex -10 -11.3856 5.2
    endloop
  endfacet
  facet normal 1.92296e-016 -0.5 -0.866025
    outer loop
      vertex -6.5 -8.61436 6.8
      vertex -6.5 -10 7.6
      vertex -10 -8.61436 6.8
    endloop
  endfacet
  facet normal 1.92296e-016 -0.5 -0.866025
    outer loop
      vertex -10 -8.61436 6.8
      vertex -6.5 -10 7.6
      vertex -10 -10 7.6
    endloop
  endfacet
  facet normal 0 -1 0
    outer loop
      vertex -6.5 -8.61436 5.2
      vertex -6.5 -8.61436 6.8
      vertex -10 -8.61436 6.8
    endloop
  endfacet
  facet normal 0 -1 0
    outer loop
      vertex -10 -8.61436 5.2
      vertex -6.5 -8.61436 5.2
      vertex -10 -8.61436 6.8
    endloop
  endfacet
  facet normal -1.92296e-016 -0.5 0.866025
    outer loop
      vertex -6.5 -10 4.4
      vertex -6.5 -8.61436 5.2
      vertex -10 -8.61436 5.2
    endloop
  endfacet
  facet normal -1.92296e-016 -0.5 0.866025
    outer loop
      vertex -10 -10 4.4
      vertex -6.5 -10 4.4
      vertex -10 -8.61436 5.2
    endloop
  endfacet
  facet normal -1.92296e-016 0.5 0.866025
    outer loop
      vertex -6.5 -11.3856 5.2
      vertex -6.5 -10 4.4
      vertex -10 -10 4.4
    endloop
  endfacet
  facet normal -1.92296e-016 0.5 0.866025
    outer loop
      vertex -10 -11.3856 5.2
      vertex -6.5 -11.3856 5.2
      vertex -10 -10 4.4
    endloop
  endfacet
  facet normal 1 0 0
    outer loop
      vertex 0 -10 7.6
      vertex 0 0 12
      vertex 0 -38 12
    endloop
  endfacet
  facet normal 1 0 0
    outer loop
      vertex 0 -30 7.6
      vertex 0 0 0
      vertex 0 -38 12
    endloop
  endfacet
  facet normal 1 0 0
    outer loop
      vertex 0 -38 0
      vertex 0 -31.3856 6.8
      vertex 0 -38 12
    endloop
  endfacet
  facet normal 1 0 0
    outer loop
      vertex 0 -31.3856 6.8
      vertex 0 -30 7.6
      vertex 0 -38 12
    endloop
  endfacet
  facet normal 1 0 0
    outer loop
      vertex 0 -28.6144 6.8
      vertex 0 0 0
      vertex 0 -30 7.6
    endloop
  endfacet
  facet normal 1 0 0
    outer loop
      vertex 0 -30 4.4
      vertex 0 -31.3856 5.2
      vertex 0 -38 0
    endloop
  endfacet
  facet normal 1 0 0
    outer loop
      vertex 0 -30 4.4
      vertex 0 0 0
      vertex 0 -28.6144 5.2
    endloop
  endfacet
  facet normal 1 0 0
    outer loop
      vertex 0 -10 7.6
      vertex 0 -8.61436 6.8
      vertex 0 0 12
    endloop
  endfacet
  facet normal 1 0 0
    outer loop
      vertex 0 -38 0
      vertex 0 0 0
      vertex 0 -30 4.4
    endloop
  endfacet
  facet normal 1 0 0
    outer loop
      vertex 0 -38 0
      vertex 0 -31.3856 5.2
      vertex 0 -31.3856 6.8
    endloop
  endfacet
  facet normal 1 0 0
    outer loop
      vertex 0 -11.3856 5.2
      vertex 0 -11.3856 6.8
      vertex 0 -38 12
    endloop
  endfacet
  facet normal 1 0 0
    outer loop
      vertex 0 -11.3856 6.8
      vertex 0 -10 7.6
      vertex 0 -38 12
    endloop
  endfacet
  facet normal 1 0 0
    outer loop
      vertex 0 -8.61436 5.2
      vertex 0 -10 4.4
      vertex 0 0 0
    endloop
  endfacet
  facet normal 1 0 0
    outer loop
      vertex 0 0 0
      vertex 0 0 12
      vertex 0 -8.61436 6.8
    endloop
  endfacet
  facet normal 1 0 0
    outer loop
      vertex 0 0 0
      vertex 0 -8.61436 6.8
      vertex 0 -8.61436 5.2
    endloop
  endfacet
  facet normal 1 0 0
    outer loop
      vertex 0 0 0
      vertex 0 -10 4.4
      vertex 0 -38 12
    endloop
  endfacet
  facet normal 1 0 0
    outer loop
      vertex 0 -10 4.4
      vertex 0 -11.3856 5.2
      vertex 0 -38 12
    endloop
  endfacet
  facet normal 1 0 0
    outer loop
      vertex 0 -28.6144 6.8
      vertex 0 -28.6144 5.2
      vertex 0 0 0
    endloop
  endfacet
  facet normal 0 -1 0
    outer loop
      vertex 5.2 0 4.61436
      vertex 0 0 0
      vertex 78 0 0
    endloop
  endfacet
  facet normal 0 -1 0
    outer loop
      vertex 6.8 0 4.61436
      vertex 5.2 0 4.61436
      vertex 78 0 0
    endloop
  endfacet
  facet normal 0 -1 0
    outer loop
      vertex 0 0 12
      vertex 0 0 0
      vertex 5.2 0 4.61436
    endloop
  endfacet
  facet normal 0 -1 0
    outer loop
      vertex 0 0 12
      vertex 5.2 0 4.61436
      vertex 4.4 0 6
    endloop
  endfacet
  facet normal 0 -1 0
    outer loop
      vertex 7.6 0 6
      vertex 6.8 0 4.61436
      vertex 78 0 0
    endloop
  endfacet
  facet normal 0 -1 0
    outer loop
      vertex 0 0 12
      vertex 4.4 0 6
      vertex 5.2 0 7.38564
    endloop
  endfacet
  facet normal 0 -1 0
    outer loop
      vertex 48.5 0 3.61436
      vertex 6.8 0 7.38564
      vertex 78 0 0
    endloop
  endfacet
  facet normal 0 -1 0
    outer loop
      vertex 0 0 12
      vertex 5.2 0 7.38564
      vertex 6.8 0 7.38564
    endloop
  endfacet
  facet normal 0 -1 0
    outer loop
      vertex 50.1 0 3.61436
      vertex 48.5 0 3.61436
      vertex 78 0 0
    endloop
  endfacet
  facet normal 0 -1 0
    outer loop
      vertex 0 0 12
      vertex 6.8 0 7.38564
      vertex 48.5 0 3.61436
    endloop
  endfacet
  facet normal 0 -1 0
    outer loop
      vertex 48.5 0 6.38564
      vertex 0 0 12
      vertex 47.7 0 5
    endloop
  endfacet
  facet normal 0 -1 0
    outer loop
      vertex 78 0 12
      vertex 0 0 12
      vertex 48.5 0 6.38564
    endloop
  endfacet
  facet normal 0 -1 0
    outer loop
      vertex 50.9 0 5
      vertex 50.1 0 3.61436
      vertex 78 0 0
    endloop
  endfacet
  facet normal 0 -1 0
    outer loop
      vertex 78 0 12
      vertex 48.5 0 6.38564
      vertex 50.1 0 6.38564
    endloop
  endfacet
  facet normal 0 -1 0
    outer loop
      vertex 78 0 12
      vertex 50.9 0 5
      vertex 78 0 0
    endloop
  endfacet
  facet normal 0 -1 0
    outer loop
      vertex 50.1 0 6.38564
      vertex 50.9 0 5
      vertex 78 0 12
    endloop
  endfacet
  facet normal 0 -1 0
    outer loop
      vertex 6.8 0 7.38564
      vertex 7.6 0 6
      vertex 78 0 0
    endloop
  endfacet
  facet normal 0 -1 0
    outer loop
      vertex 48.5 0 3.61436
      vertex 47.7 0 5
      vertex 0 0 12
    endloop
  endfacet
  facet normal -1 0 0
    outer loop
      vertex 78 -8.05231 5.2
      vertex 78 0 0
      vertex 78 -38 12
    endloop
  endfacet
  facet normal -1 0 0
    outer loop
      vertex 78 -30.6667 4.4
      vertex 78 0 0
      vertex 78 -38 0
    endloop
  endfacet
  facet normal -1 0 0
    outer loop
      vertex 78 -32.0523 6.8
      vertex 78 -38 12
      vertex 78 -30.6667 7.6
    endloop
  endfacet
  facet normal -1 0 0
    outer loop
      vertex 78 -38 12
      vertex 78 -32.0523 5.2
      vertex 78 -38 0
    endloop
  endfacet
  facet normal -1 0 0
    outer loop
      vertex 78 -32.0523 5.2
      vertex 78 -30.6667 4.4
      vertex 78 -38 0
    endloop
  endfacet
  facet normal -1 0 0
    outer loop
      vertex 78 -29.281 6.8
      vertex 78 0 0
      vertex 78 -29.281 5.2
    endloop
  endfacet
  facet normal -1 0 0
    outer loop
      vertex 78 -38 12
      vertex 78 0 0
      vertex 78 -29.281 6.8
    endloop
  endfacet
  facet normal -1 0 0
    outer loop
      vertex 78 -38 12
      vertex 78 -29.281 6.8
      vertex 78 -30.6667 7.6
    endloop
  endfacet
  facet normal -1 0 0
    outer loop
      vertex 78 -5.28103 6.8
      vertex 78 0 12
      vertex 78 -5.28103 5.2
    endloop
  endfacet
  facet normal -1 0 0
    outer loop
      vertex 78 -38 12
      vertex 78 -32.0523 6.8
      vertex 78 -32.0523 5.2
    endloop
  endfacet
  facet normal -1 0 0
    outer loop
      vertex 78 -6.66667 4.4
      vertex 78 0 0
      vertex 78 -8.05231 5.2
    endloop
  endfacet
  facet normal -1 0 0
    outer loop
      vertex 78 -8.05231 6.8
      vertex 78 -8.05231 5.2
      vertex 78 -38 12
    endloop
  endfacet
  facet normal -1 0 0
    outer loop
      vertex 78 -5.28103 5.2
      vertex 78 0 0
      vertex 78 -6.66667 4.4
    endloop
  endfacet
  facet normal -1 0 0
    outer loop
      vertex 78 0 12
      vertex 78 0 0
      vertex 78 -5.28103 5.2
    endloop
  endfacet
  facet normal -1 0 0
    outer loop
      vertex 78 -6.66667 7.6
      vertex 78 0 12
      vertex 78 -5.28103 6.8
    endloop
  endfacet
  facet normal -1 0 0
    outer loop
      vertex 78 0 12
      vertex 78 -6.66667 7.6
      vertex 78 -38 12
    endloop
  endfacet
  facet normal -1 0 0
    outer loop
      vertex 78 -6.66667 7.6
      vertex 78 -8.05231 6.8
      vertex 78 -38 12
    endloop
  endfacet
  facet normal -1 0 0
    outer loop
      vertex 78 -29.281 5.2
      vertex 78 0 0
      vertex 78 -30.6667 4.4
    endloop
  endfacet
  facet normal 0 -1 0
    outer loop
      vertex 78 -38 12
      vertex 78 -38 0
      vertex 88 -38 0
    endloop
  endfacet
  facet normal 0 -1 0
    outer loop
      vertex 88 -38 12
      vertex 78 -38 12
      vertex 88 -38 0
    endloop
  endfacet
  facet normal 1 0 0
    outer loop
      vertex 88 -30.6667 4.4
      vertex 88 -38 0
      vertex 88 10 0
    endloop
  endfacet
  facet normal 1 0 0
    outer loop
      vertex 88 -6.66667 4.4
      vertex 88 -38 12
      vertex 88 10 0
    endloop
  endfacet
  facet normal 1 0 0
    outer loop
      vertex 88 -6.66667 7.6
      vertex 88 -5.28103 6.8
      vertex 88 10 12
    endloop
  endfacet
  facet normal 1 0 0
    outer loop
      vertex 88 -38 12
      vertex 88 -38 0
      vertex 88 -32.0523 5.2
    endloop
  endfacet
  facet normal 1 0 0
    outer loop
      vertex 88 -29.281 5.2
      vertex 88 -30.6667 4.4
      vertex 88 10 0
    endloop
  endfacet
  facet normal 1 0 0
    outer loop
      vertex 88 -38 12
      vertex 88 -32.0523 5.2
      vertex 88 -32.0523 6.8
    endloop
  endfacet
  facet normal 1 0 0
    outer loop
      vertex 88 -38 12
      vertex 88 -30.6667 7.6
      vertex 88 10 0
    endloop
  endfacet
  facet normal 1 0 0
    outer loop
      vertex 88 -38 12
      vertex 88 -32.0523 6.8
      vertex 88 -30.6667 7.6
    endloop
  endfacet
  facet normal 1 0 0
    outer loop
      vertex 88 -30.6667 7.6
      vertex 88 -29.281 6.8
      vertex 88 10 0
    endloop
  endfacet
  facet normal 1 0 0
    outer loop
      vertex 88 -32.0523 5.2
      vertex 88 -38 0
      vertex 88 -30.6667 4.4
    endloop
  endfacet
  facet normal 1 0 0
    outer loop
      vertex 88 -8.05231 6.8
      vertex 88 -38 12
      vertex 88 -8.05231 5.2
    endloop
  endfacet
  facet normal 1 0 0
    outer loop
      vertex 88 -6.66667 7.6
      vertex 88 -38 12
      vertex 88 -8.05231 6.8
    endloop
  endfacet
  facet normal 1 0 0
    outer loop
      vertex 88 -5.28103 6.8
      vertex 88 -5.28103 5.2
      vertex 88 10 12
    endloop
  endfacet
  facet normal 1 0 0
    outer loop
      vertex 88 10 12
      vertex 88 -38 12
      vertex 88 -6.66667 7.6
    endloop
  endfacet
  facet normal 1 0 0
    outer loop
      vertex 88 -5.28103 5.2
      vertex 88 -6.66667 4.4
      vertex 88 10 0
    endloop
  endfacet
  facet normal 1 0 0
    outer loop
      vertex 88 10 12
      vertex 88 -5.28103 5.2
      vertex 88 10 0
    endloop
  endfacet
  facet normal 1 0 0
    outer loop
      vertex 88 -8.05231 5.2
      vertex 88 -38 12
      vertex 88 -6.66667 4.4
    endloop
  endfacet
  facet normal 1 0 0
    outer loop
      vertex 88 -29.281 6.8
      vertex 88 -29.281 5.2
      vertex 88 10 0
    endloop
  endfacet
  facet normal 0.866025 -1.11022e-016 -0.5
    outer loop
      vertex 4.4 10 6
      vertex 5.2 10 7.38564
      vertex 5.2 0 7.38564
    endloop
  endfacet
  facet normal 0.866025 -1.11022e-016 -0.5
    outer loop
      vertex 4.4 0 6
      vertex 4.4 10 6
      vertex 5.2 0 7.38564
    endloop
  endfacet
  facet normal 0.866025 1.11022e-016 0.5
    outer loop
      vertex 5.2 0 4.61436
      vertex 5.2 10 4.61436
      vertex 4.4 10 6
    endloop
  endfacet
  facet normal 0.866025 1.11022e-016 0.5
    outer loop
      vertex 4.4 0 6
      vertex 5.2 0 4.61436
      vertex 4.4 10 6
    endloop
  endfacet
  facet normal 0 -2.22045e-016 -1
    outer loop
      vertex 6.8 10 7.38564
      vertex 6.8 0 7.38564
      vertex 5.2 10 7.38564
    endloop
  endfacet
  facet normal 0 -2.22045e-016 -1
    outer loop
      vertex 5.2 10 7.38564
      vertex 6.8 0 7.38564
      vertex 5.2 0 7.38564
    endloop
  endfacet
  facet normal -0.866025 -1.11022e-016 -0.5
    outer loop
      vertex 7.6 10 6
      vertex 7.6 0 6
      vertex 6.8 10 7.38564
    endloop
  endfacet
  facet normal -0.866025 -1.11022e-016 -0.5
    outer loop
      vertex 6.8 10 7.38564
      vertex 7.6 0 6
      vertex 6.8 0 7.38564
    endloop
  endfacet
  facet normal -0.866025 1.11022e-016 0.5
    outer loop
      vertex 7.6 10 6
      vertex 6.8 10 4.61436
      vertex 7.6 0 6
    endloop
  endfacet
  facet normal -0.866025 1.11022e-016 0.5
    outer loop
      vertex 7.6 0 6
      vertex 6.8 10 4.61436
      vertex 6.8 0 4.61436
    endloop
  endfacet
  facet normal 0 2.22045e-016 1
    outer loop
      vertex 6.8 0 4.61436
      vertex 6.8 10 4.61436
      vertex 5.2 10 4.61436
    endloop
  endfacet
  facet normal 0 2.22045e-016 1
    outer loop
      vertex 5.2 0 4.61436
      vertex 6.8 0 4.61436
      vertex 5.2 10 4.61436
    endloop
  endfacet
  facet normal 0.866025 -1.11022e-016 -0.5
    outer loop
      vertex 47.7 10 5
      vertex 48.5 10 6.38564
      vertex 48.5 0 6.38564
    endloop
  endfacet
  facet normal 0.866025 -1.11022e-016 -0.5
    outer loop
      vertex 47.7 0 5
      vertex 47.7 10 5
      vertex 48.5 0 6.38564
    endloop
  endfacet
  facet normal 0.866025 1.11022e-016 0.5
    outer loop
      vertex 48.5 0 3.61436
      vertex 48.5 10 3.61436
      vertex 47.7 10 5
    endloop
  endfacet
  facet normal 0.866025 1.11022e-016 0.5
    outer loop
      vertex 47.7 0 5
      vertex 48.5 0 3.61436
      vertex 47.7 10 5
    endloop
  endfacet
  facet normal 0 -2.22045e-016 -1
    outer loop
      vertex 50.1 10 6.38564
      vertex 50.1 0 6.38564
      vertex 48.5 10 6.38564
    endloop
  endfacet
  facet normal 0 -2.22045e-016 -1
    outer loop
      vertex 48.5 10 6.38564
      vertex 50.1 0 6.38564
      vertex 48.5 0 6.38564
    endloop
  endfacet
  facet normal -0.866025 -1.11022e-016 -0.5
    outer loop
      vertex 50.9 10 5
      vertex 50.9 0 5
      vertex 50.1 10 6.38564
    endloop
  endfacet
  facet normal -0.866025 -1.11022e-016 -0.5
    outer loop
      vertex 50.1 10 6.38564
      vertex 50.9 0 5
      vertex 50.1 0 6.38564
    endloop
  endfacet
  facet normal -0.866025 1.11022e-016 0.5
    outer loop
      vertex 50.9 10 5
      vertex 50.1 10 3.61436
      vertex 50.9 0 5
    endloop
  endfacet
  facet normal -0.866025 1.11022e-016 0.5
    outer loop
      vertex 50.9 0 5
      vertex 50.1 10 3.61436
      vertex 50.1 0 3.61436
    endloop
  endfacet
  facet normal 0 2.22045e-016 1
    outer loop
      vertex 50.1 0 3.61436
      vertex 50.1 10 3.61436
      vertex 48.5 10 3.61436
    endloop
  endfacet
  facet normal 0 2.22045e-016 1
    outer loop
      vertex 48.5 0 3.61436
      vertex 50.1 0 3.61436
      vertex 48.5 10 3.61436
    endloop
  endfacet
  facet normal 1 0 0
    outer loop
      vertex -6.5 -30 7.6
      vertex -6.5 -26.75 12
      vertex -6.5 -33.25 12
    endloop
  endfacet
  facet normal 1 0 0
    outer loop
      vertex -6.5 -28.6144 6.8
      vertex -6.5 -28.6144 5.2
      vertex -6.5 -26.75 2.8
    endloop
  endfacet
  facet normal 1 0 0
    outer loop
      vertex -6.5 -33.25 2.8
      vertex -6.5 -31.3856 6.8
      vertex -6.5 -33.25 12
    endloop
  endfacet
  facet normal 1 0 0
    outer loop
      vertex -6.5 -28.6144 6.8
      vertex -6.5 -26.75 12
      vertex -6.5 -30 7.6
    endloop
  endfacet
  facet normal 1 0 0
    outer loop
      vertex -6.5 -28.6144 5.2
      vertex -6.5 -30 4.4
      vertex -6.5 -26.75 2.8
    endloop
  endfacet
  facet normal 1 0 0
    outer loop
      vertex -6.5 -26.75 2.8
      vertex -6.5 -26.75 12
      vertex -6.5 -28.6144 6.8
    endloop
  endfacet
  facet normal 1 0 0
    outer loop
      vertex -6.5 -33.25 2.8
      vertex -6.5 -26.75 2.8
      vertex -6.5 -30 4.4
    endloop
  endfacet
  facet normal 1 0 0
    outer loop
      vertex -6.5 -33.25 2.8
      vertex -6.5 -31.3856 5.2
      vertex -6.5 -31.3856 6.8
    endloop
  endfacet
  facet normal 1 0 0
    outer loop
      vertex -6.5 -33.25 2.8
      vertex -6.5 -30 4.4
      vertex -6.5 -31.3856 5.2
    endloop
  endfacet
  facet normal 1 0 0
    outer loop
      vertex -6.5 -31.3856 6.8
      vertex -6.5 -30 7.6
      vertex -6.5 -33.25 12
    endloop
  endfacet
  facet normal 0 1 0
    outer loop
      vertex -3.5 -33.25 12
      vertex -3.5 -33.25 2.8
      vertex -6.5 -33.25 12
    endloop
  endfacet
  facet normal 0 1 0
    outer loop
      vertex -6.5 -33.25 12
      vertex -3.5 -33.25 2.8
      vertex -6.5 -33.25 2.8
    endloop
  endfacet
  facet normal -1 0 0
    outer loop
      vertex -3.5 -30 4.4
      vertex -3.5 -26.75 2.8
      vertex -3.5 -33.25 2.8
    endloop
  endfacet
  facet normal -1 0 0
    outer loop
      vertex -3.5 -28.6144 6.8
      vertex -3.5 -26.75 2.8
      vertex -3.5 -28.6144 5.2
    endloop
  endfacet
  facet normal -1 0 0
    outer loop
      vertex -3.5 -33.25 12
      vertex -3.5 -31.3856 5.2
      vertex -3.5 -33.25 2.8
    endloop
  endfacet
  facet normal -1 0 0
    outer loop
      vertex -3.5 -31.3856 5.2
      vertex -3.5 -30 4.4
      vertex -3.5 -33.25 2.8
    endloop
  endfacet
  facet normal -1 0 0
    outer loop
      vertex -3.5 -26.75 12
      vertex -3.5 -26.75 2.8
      vertex -3.5 -28.6144 6.8
    endloop
  endfacet
  facet normal -1 0 0
    outer loop
      vertex -3.5 -26.75 12
      vertex -3.5 -28.6144 6.8
      vertex -3.5 -33.25 12
    endloop
  endfacet
  facet normal -1 0 0
    outer loop
      vertex -3.5 -31.3856 6.8
      vertex -3.5 -33.25 12
      vertex -3.5 -30 7.6
    endloop
  endfacet
  facet normal -1 0 0
    outer loop
      vertex -3.5 -28.6144 6.8
      vertex -3.5 -30 7.6
      vertex -3.5 -33.25 12
    endloop
  endfacet
  facet normal -1 0 0
    outer loop
      vertex -3.5 -33.25 12
      vertex -3.5 -31.3856 6.8
      vertex -3.5 -31.3856 5.2
    endloop
  endfacet
  facet normal -1 0 0
    outer loop
      vertex -3.5 -28.6144 5.2
      vertex -3.5 -26.75 2.8
      vertex -3.5 -30 4.4
    endloop
  endfacet
  facet normal 0 -1 0
    outer loop
      vertex -3.5 -26.75 2.8
      vertex -3.5 -26.75 12
      vertex -6.5 -26.75 12
    endloop
  endfacet
  facet normal 0 -1 0
    outer loop
      vertex -6.5 -26.75 2.8
      vertex -3.5 -26.75 2.8
      vertex -6.5 -26.75 12
    endloop
  endfacet
  facet normal 1 0 0
    outer loop
      vertex -6.5 -10 7.6
      vertex -6.5 -6.75 12
      vertex -6.5 -13.25 12
    endloop
  endfacet
  facet normal 1 0 0
    outer loop
      vertex -6.5 -8.61436 6.8
      vertex -6.5 -8.61436 5.2
      vertex -6.5 -6.75 2.8
    endloop
  endfacet
  facet normal 1 0 0
    outer loop
      vertex -6.5 -13.25 2.8
      vertex -6.5 -11.3856 6.8
      vertex -6.5 -13.25 12
    endloop
  endfacet
  facet normal 1 0 0
    outer loop
      vertex -6.5 -8.61436 6.8
      vertex -6.5 -6.75 12
      vertex -6.5 -10 7.6
    endloop
  endfacet
  facet normal 1 0 0
    outer loop
      vertex -6.5 -8.61436 5.2
      vertex -6.5 -10 4.4
      vertex -6.5 -6.75 2.8
    endloop
  endfacet
  facet normal 1 0 0
    outer loop
      vertex -6.5 -6.75 2.8
      vertex -6.5 -6.75 12
      vertex -6.5 -8.61436 6.8
    endloop
  endfacet
  facet normal 1 0 0
    outer loop
      vertex -6.5 -13.25 2.8
      vertex -6.5 -6.75 2.8
      vertex -6.5 -10 4.4
    endloop
  endfacet
  facet normal 1 0 0
    outer loop
      vertex -6.5 -13.25 2.8
      vertex -6.5 -11.3856 5.2
      vertex -6.5 -11.3856 6.8
    endloop
  endfacet
  facet normal 1 0 0
    outer loop
      vertex -6.5 -13.25 2.8
      vertex -6.5 -10 4.4
      vertex -6.5 -11.3856 5.2
    endloop
  endfacet
  facet normal 1 0 0
    outer loop
      vertex -6.5 -11.3856 6.8
      vertex -6.5 -10 7.6
      vertex -6.5 -13.25 12
    endloop
  endfacet
  facet normal 0 1 0
    outer loop
      vertex -3.5 -13.25 12
      vertex -3.5 -13.25 2.8
      vertex -6.5 -13.25 12
    endloop
  endfacet
  facet normal 0 1 0
    outer loop
      vertex -6.5 -13.25 12
      vertex -3.5 -13.25 2.8
      vertex -6.5 -13.25 2.8
    endloop
  endfacet
  facet normal -1 0 0
    outer loop
      vertex -3.5 -10 4.4
      vertex -3.5 -6.75 2.8
      vertex -3.5 -13.25 2.8
    endloop
  endfacet
  facet normal -1 0 0
    outer loop
      vertex -3.5 -8.61436 6.8
      vertex -3.5 -6.75 2.8
      vertex -3.5 -8.61436 5.2
    endloop
  endfacet
  facet normal -1 0 0
    outer loop
      vertex -3.5 -13.25 12
      vertex -3.5 -11.3856 5.2
      vertex -3.5 -13.25 2.8
    endloop
  endfacet
  facet normal -1 0 0
    outer loop
      vertex -3.5 -11.3856 5.2
      vertex -3.5 -10 4.4
      vertex -3.5 -13.25 2.8
    endloop
  endfacet
  facet normal -1 0 0
    outer loop
      vertex -3.5 -6.75 12
      vertex -3.5 -6.75 2.8
      vertex -3.5 -8.61436 6.8
    endloop
  endfacet
  facet normal -1 0 0
    outer loop
      vertex -3.5 -6.75 12
      vertex -3.5 -8.61436 6.8
      vertex -3.5 -13.25 12
    endloop
  endfacet
  facet normal -1 0 0
    outer loop
      vertex -3.5 -11.3856 6.8
      vertex -3.5 -13.25 12
      vertex -3.5 -10 7.6
    endloop
  endfacet
  facet normal -1 0 0
    outer loop
      vertex -3.5 -8.61436 6.8
      vertex -3.5 -10 7.6
      vertex -3.5 -13.25 12
    endloop
  endfacet
  facet normal -1 0 0
    outer loop
      vertex -3.5 -13.25 12
      vertex -3.5 -11.3856 6.8
      vertex -3.5 -11.3856 5.2
    endloop
  endfacet
  facet normal -1 0 0
    outer loop
      vertex -3.5 -8.61436 5.2
      vertex -3.5 -6.75 2.8
      vertex -3.5 -10 4.4
    endloop
  endfacet
  facet normal 0 -1 0
    outer loop
      vertex -3.5 -6.75 2.8
      vertex -3.5 -6.75 12
      vertex -6.5 -6.75 12
    endloop
  endfacet
  facet normal 0 -1 0
    outer loop
      vertex -6.5 -6.75 2.8
      vertex -3.5 -6.75 2.8
      vertex -6.5 -6.75 12
    endloop
  endfacet
  facet normal 1 0 0
    outer loop
      vertex 81.5 -30.6667 7.6
      vertex 81.5 -27.4167 12
      vertex 81.5 -33.9167 12
    endloop
  endfacet
  facet normal 1 0 0
    outer loop
      vertex 81.5 -29.281 6.8
      vertex 81.5 -29.281 5.2
      vertex 81.5 -27.4167 2.8
    endloop
  endfacet
  facet normal 1 0 0
    outer loop
      vertex 81.5 -33.9167 2.8
      vertex 81.5 -32.0523 6.8
      vertex 81.5 -33.9167 12
    endloop
  endfacet
  facet normal 1 0 0
    outer loop
      vertex 81.5 -29.281 6.8
      vertex 81.5 -27.4167 12
      vertex 81.5 -30.6667 7.6
    endloop
  endfacet
  facet normal 1 0 0
    outer loop
      vertex 81.5 -29.281 5.2
      vertex 81.5 -30.6667 4.4
      vertex 81.5 -27.4167 2.8
    endloop
  endfacet
  facet normal 1 0 0
    outer loop
      vertex 81.5 -27.4167 2.8
      vertex 81.5 -27.4167 12
      vertex 81.5 -29.281 6.8
    endloop
  endfacet
  facet normal 1 0 0
    outer loop
      vertex 81.5 -33.9167 2.8
      vertex 81.5 -27.4167 2.8
      vertex 81.5 -30.6667 4.4
    endloop
  endfacet
  facet normal 1 0 0
    outer loop
      vertex 81.5 -33.9167 2.8
      vertex 81.5 -32.0523 5.2
      vertex 81.5 -32.0523 6.8
    endloop
  endfacet
  facet normal 1 0 0
    outer loop
      vertex 81.5 -33.9167 2.8
      vertex 81.5 -30.6667 4.4
      vertex 81.5 -32.0523 5.2
    endloop
  endfacet
  facet normal 1 0 0
    outer loop
      vertex 81.5 -32.0523 6.8
      vertex 81.5 -30.6667 7.6
      vertex 81.5 -33.9167 12
    endloop
  endfacet
  facet normal 0 1 0
    outer loop
      vertex 84.5 -33.9167 12
      vertex 84.5 -33.9167 2.8
      vertex 81.5 -33.9167 12
    endloop
  endfacet
  facet normal 0 1 0
    outer loop
      vertex 81.5 -33.9167 12
      vertex 84.5 -33.9167 2.8
      vertex 81.5 -33.9167 2.8
    endloop
  endfacet
  facet normal -1 0 0
    outer loop
      vertex 84.5 -30.6667 4.4
      vertex 84.5 -27.4167 2.8
      vertex 84.5 -33.9167 2.8
    endloop
  endfacet
  facet normal -1 0 0
    outer loop
      vertex 84.5 -29.281 6.8
      vertex 84.5 -27.4167 2.8
      vertex 84.5 -29.281 5.2
    endloop
  endfacet
  facet normal -1 0 0
    outer loop
      vertex 84.5 -33.9167 12
      vertex 84.5 -32.0523 5.2
      vertex 84.5 -33.9167 2.8
    endloop
  endfacet
  facet normal -1 0 0
    outer loop
      vertex 84.5 -32.0523 5.2
      vertex 84.5 -30.6667 4.4
      vertex 84.5 -33.9167 2.8
    endloop
  endfacet
  facet normal -1 0 0
    outer loop
      vertex 84.5 -27.4167 12
      vertex 84.5 -27.4167 2.8
      vertex 84.5 -29.281 6.8
    endloop
  endfacet
  facet normal -1 0 0
    outer loop
      vertex 84.5 -27.4167 12
      vertex 84.5 -29.281 6.8
      vertex 84.5 -33.9167 12
    endloop
  endfacet
  facet normal -1 0 0
    outer loop
      vertex 84.5 -32.0523 6.8
      vertex 84.5 -33.9167 12
      vertex 84.5 -30.6667 7.6
    endloop
  endfacet
  facet normal -1 0 0
    outer loop
      vertex 84.5 -29.281 6.8
      vertex 84.5 -30.6667 7.6
      vertex 84.5 -33.9167 12
    endloop
  endfacet
  facet normal -1 0 0
    outer loop
      vertex 84.5 -33.9167 12
      vertex 84.5 -32.0523 6.8
      vertex 84.5 -32.0523 5.2
    endloop
  endfacet
  facet normal -1 0 0
    outer loop
      vertex 84.5 -29.281 5.2
      vertex 84.5 -27.4167 2.8
      vertex 84.5 -30.6667 4.4
    endloop
  endfacet
  facet normal 0 -1 0
    outer loop
      vertex 84.5 -27.4167 2.8
      vertex 84.5 -27.4167 12
      vertex 81.5 -27.4167 12
    endloop
  endfacet
  facet normal 0 -1 0
    outer loop
      vertex 81.5 -27.4167 2.8
      vertex 84.5 -27.4167 2.8
      vertex 81.5 -27.4167 12
    endloop
  endfacet
  facet normal 1 0 0
    outer loop
      vertex 81.5 -6.66667 7.6
      vertex 81.5 -3.41667 12
      vertex 81.5 -9.91667 12
    endloop
  endfacet
  facet normal 1 0 0
    outer loop
      vertex 81.5 -5.28103 6.8
      vertex 81.5 -5.28103 5.2
      vertex 81.5 -3.41667 2.8
    endloop
  endfacet
  facet normal 1 0 0
    outer loop
      vertex 81.5 -9.91667 2.8
      vertex 81.5 -8.05231 6.8
      vertex 81.5 -9.91667 12
    endloop
  endfacet
  facet normal 1 0 0
    outer loop
      vertex 81.5 -5.28103 6.8
      vertex 81.5 -3.41667 12
      vertex 81.5 -6.66667 7.6
    endloop
  endfacet
  facet normal 1 0 0
    outer loop
      vertex 81.5 -5.28103 5.2
      vertex 81.5 -6.66667 4.4
      vertex 81.5 -3.41667 2.8
    endloop
  endfacet
  facet normal 1 0 0
    outer loop
      vertex 81.5 -3.41667 2.8
      vertex 81.5 -3.41667 12
      vertex 81.5 -5.28103 6.8
    endloop
  endfacet
  facet normal 1 0 0
    outer loop
      vertex 81.5 -9.91667 2.8
      vertex 81.5 -3.41667 2.8
      vertex 81.5 -6.66667 4.4
    endloop
  endfacet
  facet normal 1 0 0
    outer loop
      vertex 81.5 -9.91667 2.8
      vertex 81.5 -8.05231 5.2
      vertex 81.5 -8.05231 6.8
    endloop
  endfacet
  facet normal 1 0 0
    outer loop
      vertex 81.5 -9.91667 2.8
      vertex 81.5 -6.66667 4.4
      vertex 81.5 -8.05231 5.2
    endloop
  endfacet
  facet normal 1 0 0
    outer loop
      vertex 81.5 -8.05231 6.8
      vertex 81.5 -6.66667 7.6
      vertex 81.5 -9.91667 12
    endloop
  endfacet
  facet normal 0 1 0
    outer loop
      vertex 84.5 -9.91667 12
      vertex 84.5 -9.91667 2.8
      vertex 81.5 -9.91667 12
    endloop
  endfacet
  facet normal 0 1 0
    outer loop
      vertex 81.5 -9.91667 12
      vertex 84.5 -9.91667 2.8
      vertex 81.5 -9.91667 2.8
    endloop
  endfacet
  facet normal -1 0 0
    outer loop
      vertex 84.5 -6.66667 4.4
      vertex 84.5 -3.41667 2.8
      vertex 84.5 -9.91667 2.8
    endloop
  endfacet
  facet normal -1 0 0
    outer loop
      vertex 84.5 -5.28103 6.8
      vertex 84.5 -3.41667 2.8
      vertex 84.5 -5.28103 5.2
    endloop
  endfacet
  facet normal -1 0 0
    outer loop
      vertex 84.5 -9.91667 12
      vertex 84.5 -8.05231 5.2
      vertex 84.5 -9.91667 2.8
    endloop
  endfacet
  facet normal -1 0 0
    outer loop
      vertex 84.5 -8.05231 5.2
      vertex 84.5 -6.66667 4.4
      vertex 84.5 -9.91667 2.8
    endloop
  endfacet
  facet normal -1 0 0
    outer loop
      vertex 84.5 -3.41667 12
      vertex 84.5 -3.41667 2.8
      vertex 84.5 -5.28103 6.8
    endloop
  endfacet
  facet normal -1 0 0
    outer loop
      vertex 84.5 -3.41667 12
      vertex 84.5 -5.28103 6.8
      vertex 84.5 -9.91667 12
    endloop
  endfacet
  facet normal -1 0 0
    outer loop
      vertex 84.5 -8.05231 6.8
      vertex 84.5 -9.91667 12
      vertex 84.5 -6.66667 7.6
    endloop
  endfacet
  facet normal -1 0 0
    outer loop
      vertex 84.5 -5.28103 6.8
      vertex 84.5 -6.66667 7.6
      vertex 84.5 -9.91667 12
    endloop
  endfacet
  facet normal -1 0 0
    outer loop
      vertex 84.5 -9.91667 12
      vertex 84.5 -8.05231 6.8
      vertex 84.5 -8.05231 5.2
    endloop
  endfacet
  facet normal -1 0 0
    outer loop
      vertex 84.5 -5.28103 5.2
      vertex 84.5 -3.41667 2.8
      vertex 84.5 -6.66667 4.4
    endloop
  endfacet
  facet normal 0 -1 0
    outer loop
      vertex 84.5 -3.41667 2.8
      vertex 84.5 -3.41667 12
      vertex 81.5 -3.41667 12
    endloop
  endfacet
  facet normal 0 -1 0
    outer loop
      vertex 81.5 -3.41667 2.8
      vertex 84.5 -3.41667 2.8
      vertex 81.5 -3.41667 12
    endloop
  endfacet
  facet normal 1.92296e-016 0.5 -0.866025
    outer loop
      vertex 0 -30 7.6
      vertex 0 -31.3856 6.8
      vertex -3.5 -30 7.6
    endloop
  endfacet
  facet normal 1.92296e-016 0.5 -0.866025
    outer loop
      vertex -3.5 -30 7.6
      vertex 0 -31.3856 6.8
      vertex -3.5 -31.3856 6.8
    endloop
  endfacet
  facet normal 0 1 0
    outer loop
      vertex 0 -31.3856 6.8
      vertex 0 -31.3856 5.2
      vertex -3.5 -31.3856 6.8
    endloop
  endfacet
  facet normal 0 1 0
    outer loop
      vertex -3.5 -31.3856 6.8
      vertex 0 -31.3856 5.2
      vertex -3.5 -31.3856 5.2
    endloop
  endfacet
  facet normal -1.92296e-016 0.5 0.866025
    outer loop
      vertex 0 -31.3856 5.2
      vertex 0 -30 4.4
      vertex -3.5 -30 4.4
    endloop
  endfacet
  facet normal -1.92296e-016 0.5 0.866025
    outer loop
      vertex -3.5 -31.3856 5.2
      vertex 0 -31.3856 5.2
      vertex -3.5 -30 4.4
    endloop
  endfacet
  facet normal -1.92296e-016 -0.5 0.866025
    outer loop
      vertex 0 -30 4.4
      vertex 0 -28.6144 5.2
      vertex -3.5 -28.6144 5.2
    endloop
  endfacet
  facet normal -1.92296e-016 -0.5 0.866025
    outer loop
      vertex -3.5 -30 4.4
      vertex 0 -30 4.4
      vertex -3.5 -28.6144 5.2
    endloop
  endfacet
  facet normal 0 -1 0
    outer loop
      vertex 0 -28.6144 5.2
      vertex 0 -28.6144 6.8
      vertex -3.5 -28.6144 6.8
    endloop
  endfacet
  facet normal 0 -1 0
    outer loop
      vertex -3.5 -28.6144 5.2
      vertex 0 -28.6144 5.2
      vertex -3.5 -28.6144 6.8
    endloop
  endfacet
  facet normal 1.92296e-016 -0.5 -0.866025
    outer loop
      vertex 0 -28.6144 6.8
      vertex 0 -30 7.6
      vertex -3.5 -28.6144 6.8
    endloop
  endfacet
  facet normal 1.92296e-016 -0.5 -0.866025
    outer loop
      vertex -3.5 -28.6144 6.8
      vertex 0 -30 7.6
      vertex -3.5 -30 7.6
    endloop
  endfacet
  facet normal 1.92296e-016 0.5 -0.866025
    outer loop
      vertex 0 -10 7.6
      vertex 0 -11.3856 6.8
      vertex -3.5 -10 7.6
    endloop
  endfacet
  facet normal 1.92296e-016 0.5 -0.866025
    outer loop
      vertex -3.5 -10 7.6
      vertex 0 -11.3856 6.8
      vertex -3.5 -11.3856 6.8
    endloop
  endfacet
  facet normal 0 1 0
    outer loop
      vertex 0 -11.3856 6.8
      vertex 0 -11.3856 5.2
      vertex -3.5 -11.3856 6.8
    endloop
  endfacet
  facet normal 0 1 0
    outer loop
      vertex -3.5 -11.3856 6.8
      vertex 0 -11.3856 5.2
      vertex -3.5 -11.3856 5.2
    endloop
  endfacet
  facet normal -1.92296e-016 0.5 0.866025
    outer loop
      vertex 0 -11.3856 5.2
      vertex 0 -10 4.4
      vertex -3.5 -10 4.4
    endloop
  endfacet
  facet normal -1.92296e-016 0.5 0.866025
    outer loop
      vertex -3.5 -11.3856 5.2
      vertex 0 -11.3856 5.2
      vertex -3.5 -10 4.4
    endloop
  endfacet
  facet normal -1.92296e-016 -0.5 0.866025
    outer loop
      vertex 0 -10 4.4
      vertex 0 -8.61436 5.2
      vertex -3.5 -8.61436 5.2
    endloop
  endfacet
  facet normal -1.92296e-016 -0.5 0.866025
    outer loop
      vertex -3.5 -10 4.4
      vertex 0 -10 4.4
      vertex -3.5 -8.61436 5.2
    endloop
  endfacet
  facet normal 0 -1 0
    outer loop
      vertex 0 -8.61436 5.2
      vertex 0 -8.61436 6.8
      vertex -3.5 -8.61436 6.8
    endloop
  endfacet
  facet normal 0 -1 0
    outer loop
      vertex -3.5 -8.61436 5.2
      vertex 0 -8.61436 5.2
      vertex -3.5 -8.61436 6.8
    endloop
  endfacet
  facet normal 1.92296e-016 -0.5 -0.866025
    outer loop
      vertex 0 -8.61436 6.8
      vertex 0 -10 7.6
      vertex -3.5 -8.61436 6.8
    endloop
  endfacet
  facet normal 1.92296e-016 -0.5 -0.866025
    outer loop
      vertex -3.5 -8.61436 6.8
      vertex 0 -10 7.6
      vertex -3.5 -10 7.6
    endloop
  endfacet
  facet normal 0 1 0
    outer loop
      vertex 81.5 -32.0523 6.8
      vertex 81.5 -32.0523 5.2
      vertex 78 -32.0523 6.8
    endloop
  endfacet
  facet normal 0 1 0
    outer loop
      vertex 78 -32.0523 6.8
      vertex 81.5 -32.0523 5.2
      vertex 78 -32.0523 5.2
    endloop
  endfacet
  facet normal -1.92296e-016 0.5 0.866025
    outer loop
      vertex 81.5 -32.0523 5.2
      vertex 81.5 -30.6667 4.4
      vertex 78 -30.6667 4.4
    endloop
  endfacet
  facet normal -1.92296e-016 0.5 0.866025
    outer loop
      vertex 78 -32.0523 5.2
      vertex 81.5 -32.0523 5.2
      vertex 78 -30.6667 4.4
    endloop
  endfacet
  facet normal 1.92296e-016 0.5 -0.866025
    outer loop
      vertex 81.5 -30.6667 7.6
      vertex 81.5 -32.0523 6.8
      vertex 78 -30.6667 7.6
    endloop
  endfacet
  facet normal 1.92296e-016 0.5 -0.866025
    outer loop
      vertex 78 -30.6667 7.6
      vertex 81.5 -32.0523 6.8
      vertex 78 -32.0523 6.8
    endloop
  endfacet
  facet normal 1.92296e-016 -0.5 -0.866025
    outer loop
      vertex 81.5 -29.281 6.8
      vertex 81.5 -30.6667 7.6
      vertex 78 -29.281 6.8
    endloop
  endfacet
  facet normal 1.92296e-016 -0.5 -0.866025
    outer loop
      vertex 78 -29.281 6.8
      vertex 81.5 -30.6667 7.6
      vertex 78 -30.6667 7.6
    endloop
  endfacet
  facet normal 0 -1 0
    outer loop
      vertex 81.5 -29.281 5.2
      vertex 81.5 -29.281 6.8
      vertex 78 -29.281 6.8
    endloop
  endfacet
  facet normal 0 -1 0
    outer loop
      vertex 78 -29.281 5.2
      vertex 81.5 -29.281 5.2
      vertex 78 -29.281 6.8
    endloop
  endfacet
  facet normal -1.92296e-016 -0.5 0.866025
    outer loop
      vertex 81.5 -30.6667 4.4
      vertex 81.5 -29.281 5.2
      vertex 78 -29.281 5.2
    endloop
  endfacet
  facet normal -1.92296e-016 -0.5 0.866025
    outer loop
      vertex 78 -30.6667 4.4
      vertex 81.5 -30.6667 4.4
      vertex 78 -29.281 5.2
    endloop
  endfacet
  facet normal 0 1 0
    outer loop
      vertex 81.5 -8.05231 6.8
      vertex 81.5 -8.05231 5.2
      vertex 78 -8.05231 6.8
    endloop
  endfacet
  facet normal 0 1 0
    outer loop
      vertex 78 -8.05231 6.8
      vertex 81.5 -8.05231 5.2
      vertex 78 -8.05231 5.2
    endloop
  endfacet
  facet normal -1.92296e-016 0.5 0.866025
    outer loop
      vertex 81.5 -8.05231 5.2
      vertex 81.5 -6.66667 4.4
      vertex 78 -6.66667 4.4
    endloop
  endfacet
  facet normal -1.92296e-016 0.5 0.866025
    outer loop
      vertex 78 -8.05231 5.2
      vertex 81.5 -8.05231 5.2
      vertex 78 -6.66667 4.4
    endloop
  endfacet
  facet normal 1.92296e-016 0.5 -0.866025
    outer loop
      vertex 81.5 -6.66667 7.6
      vertex 81.5 -8.05231 6.8
      vertex 78 -6.66667 7.6
    endloop
  endfacet
  facet normal 1.92296e-016 0.5 -0.866025
    outer loop
      vertex 78 -6.66667 7.6
      vertex 81.5 -8.05231 6.8
      vertex 78 -8.05231 6.8
    endloop
  endfacet
  facet normal 1.92296e-016 -0.5 -0.866025
    outer loop
      vertex 81.5 -5.28103 6.8
      vertex 81.5 -6.66667 7.6
      vertex 78 -5.28103 6.8
    endloop
  endfacet
  facet normal 1.92296e-016 -0.5 -0.866025
    outer loop
      vertex 78 -5.28103 6.8
      vertex 81.5 -6.66667 7.6
      vertex 78 -6.66667 7.6
    endloop
  endfacet
  facet normal 0 -1 0
    outer loop
      vertex 81.5 -5.28103 5.2
      vertex 81.5 -5.28103 6.8
      vertex 78 -5.28103 6.8
    endloop
  endfacet
  facet normal 0 -1 0
    outer loop
      vertex 78 -5.28103 5.2
      vertex 81.5 -5.28103 5.2
      vertex 78 -5.28103 6.8
    endloop
  endfacet
  facet normal -1.92296e-016 -0.5 0.866025
    outer loop
      vertex 81.5 -6.66667 4.4
      vertex 81.5 -5.28103 5.2
      vertex 78 -5.28103 5.2
    endloop
  endfacet
  facet normal -1.92296e-016 -0.5 0.866025
    outer loop
      vertex 78 -6.66667 4.4
      vertex 81.5 -6.66667 4.4
      vertex 78 -5.28103 5.2
    endloop
  endfacet
  facet normal 0 1 0
    outer loop
      vertex 88 -32.0523 6.8
      vertex 88 -32.0523 5.2
      vertex 84.5 -32.0523 6.8
    endloop
  endfacet
  facet normal 0 1 0
    outer loop
      vertex 84.5 -32.0523 6.8
      vertex 88 -32.0523 5.2
      vertex 84.5 -32.0523 5.2
    endloop
  endfacet
  facet normal -1.92296e-016 0.5 0.866025
    outer loop
      vertex 88 -32.0523 5.2
      vertex 88 -30.6667 4.4
      vertex 84.5 -30.6667 4.4
    endloop
  endfacet
  facet normal -1.92296e-016 0.5 0.866025
    outer loop
      vertex 84.5 -32.0523 5.2
      vertex 88 -32.0523 5.2
      vertex 84.5 -30.6667 4.4
    endloop
  endfacet
  facet normal -1.92296e-016 -0.5 0.866025
    outer loop
      vertex 88 -30.6667 4.4
      vertex 88 -29.281 5.2
      vertex 84.5 -29.281 5.2
    endloop
  endfacet
  facet normal -1.92296e-016 -0.5 0.866025
    outer loop
      vertex 84.5 -30.6667 4.4
      vertex 88 -30.6667 4.4
      vertex 84.5 -29.281 5.2
    endloop
  endfacet
  facet normal 0 -1 0
    outer loop
      vertex 88 -29.281 5.2
      vertex 88 -29.281 6.8
      vertex 84.5 -29.281 6.8
    endloop
  endfacet
  facet normal 0 -1 0
    outer loop
      vertex 84.5 -29.281 5.2
      vertex 88 -29.281 5.2
      vertex 84.5 -29.281 6.8
    endloop
  endfacet
  facet normal 1.92296e-016 -0.5 -0.866025
    outer loop
      vertex 88 -29.281 6.8
      vertex 88 -30.6667 7.6
      vertex 84.5 -29.281 6.8
    endloop
  endfacet
  facet normal 1.92296e-016 -0.5 -0.866025
    outer loop
      vertex 84.5 -29.281 6.8
      vertex 88 -30.6667 7.6
      vertex 84.5 -30.6667 7.6
    endloop
  endfacet
  facet normal 1.92296e-016 0.5 -0.866025
    outer loop
      vertex 88 -30.6667 7.6
      vertex 88 -32.0523 6.8
      vertex 84.5 -30.6667 7.6
    endloop
  endfacet
  facet normal 1.92296e-016 0.5 -0.866025
    outer loop
      vertex 84.5 -30.6667 7.6
      vertex 88 -32.0523 6.8
      vertex 84.5 -32.0523 6.8
    endloop
  endfacet
  facet normal 0 1 0
    outer loop
      vertex 88 -8.05231 6.8
      vertex 88 -8.05231 5.2
      vertex 84.5 -8.05231 6.8
    endloop
  endfacet
  facet normal 0 1 0
    outer loop
      vertex 84.5 -8.05231 6.8
      vertex 88 -8.05231 5.2
      vertex 84.5 -8.05231 5.2
    endloop
  endfacet
  facet normal -1.92296e-016 0.5 0.866025
    outer loop
      vertex 88 -8.05231 5.2
      vertex 88 -6.66667 4.4
      vertex 84.5 -6.66667 4.4
    endloop
  endfacet
  facet normal -1.92296e-016 0.5 0.866025
    outer loop
      vertex 84.5 -8.05231 5.2
      vertex 88 -8.05231 5.2
      vertex 84.5 -6.66667 4.4
    endloop
  endfacet
  facet normal -1.92296e-016 -0.5 0.866025
    outer loop
      vertex 88 -6.66667 4.4
      vertex 88 -5.28103 5.2
      vertex 84.5 -5.28103 5.2
    endloop
  endfacet
  facet normal -1.92296e-016 -0.5 0.866025
    outer loop
      vertex 84.5 -6.66667 4.4
      vertex 88 -6.66667 4.4
      vertex 84.5 -5.28103 5.2
    endloop
  endfacet
  facet normal 0 -1 0
    outer loop
      vertex 88 -5.28103 5.2
      vertex 88 -5.28103 6.8
      vertex 84.5 -5.28103 6.8
    endloop
  endfacet
  facet normal 0 -1 0
    outer loop
      vertex 84.5 -5.28103 5.2
      vertex 88 -5.28103 5.2
      vertex 84.5 -5.28103 6.8
    endloop
  endfacet
  facet normal 1.92296e-016 -0.5 -0.866025
    outer loop
      vertex 88 -5.28103 6.8
      vertex 88 -6.66667 7.6
      vertex 84.5 -5.28103 6.8
    endloop
  endfacet
  facet normal 1.92296e-016 -0.5 -0.866025
    outer loop
      vertex 84.5 -5.28103 6.8
      vertex 88 -6.66667 7.6
      vertex 84.5 -6.66667 7.6
    endloop
  endfacet
  facet normal 1.92296e-016 0.5 -0.866025
    outer loop
      vertex 88 -6.66667 7.6
      vertex 88 -8.05231 6.8
      vertex 84.5 -6.66667 7.6
    endloop
  endfacet
  facet normal 1.92296e-016 0.5 -0.866025
    outer loop
      vertex 84.5 -6.66667 7.6
      vertex 88 -8.05231 6.8
      vertex 84.5 -8.05231 6.8
    endloop
  endfacet
  facet normal 0 0 1
    outer loop
      vertex -3.5 -33.25 2.8
      vertex -3.5 -26.75 2.8
      vertex -6.5 -26.75 2.8
    endloop
  endfacet
  facet normal 0 0 1
    outer loop
      vertex -6.5 -33.25 2.8
      vertex -3.5 -33.25 2.8
      vertex -6.5 -26.75 2.8
    endloop
  endfacet
  facet normal 0 0 1
    outer loop
      vertex -3.5 -13.25 2.8
      vertex -3.5 -6.75 2.8
      vertex -6.5 -6.75 2.8
    endloop
  endfacet
  facet normal 0 0 1
    outer loop
      vertex -6.5 -13.25 2.8
      vertex -3.5 -13.25 2.8
      vertex -6.5 -6.75 2.8
    endloop
  endfacet
  facet normal 0 0 1
    outer loop
      vertex 84.5 -33.9167 2.8
      vertex 84.5 -27.4167 2.8
      vertex 81.5 -27.4167 2.8
    endloop
  endfacet
  facet normal 0 0 1
    outer loop
      vertex 81.5 -33.9167 2.8
      vertex 84.5 -33.9167 2.8
      vertex 81.5 -27.4167 2.8
    endloop
  endfacet
  facet normal 0 0 1
    outer loop
      vertex 84.5 -9.91667 2.8
      vertex 84.5 -3.41667 2.8
      vertex 81.5 -3.41667 2.8
    endloop
  endfacet
  facet normal 0 0 1
    outer loop
      vertex 81.5 -9.91667 2.8
      vertex 84.5 -9.91667 2.8
      vertex 81.5 -3.41667 2.8
    endloop
  endfacet
endsolid OpenSCAD_Model
